<svg width="62" height="28" viewBox="0 0 62 28" fill="none" xmlns="http://www.w3.org/2000/svg">
<g id="uifry">
<path d="M6.60429 21.7257C7.55168 21.7257 8.38976 21.5526 9.11852 21.2064C9.84729 20.842 10.403 20.2955 10.7856 19.5667V21.3977H14.6116V6.4763H10.5123V15.1941C10.5123 16.0504 10.2572 16.7428 9.74708 17.2711C9.23695 17.7812 8.58106 18.0363 7.77942 18.0363C6.97778 18.0363 6.32189 17.7812 5.81176 17.2711C5.30163 16.7428 5.04656 16.0504 5.04656 15.1941V6.4763H0.947266V15.5221C0.947266 17.3804 1.43007 18.8835 2.39568 20.0313C3.37951 21.1609 4.78238 21.7257 6.60429 21.7257Z" fill="white"/>
<path d="M17.6077 5.1372H21.707V1.0379H17.6077V5.1372ZM17.6077 21.3977H21.707V6.4763H17.6077V21.3977Z" fill="white"/>
<path d="M26.5104 21.3977H30.6097V10.029H33.8072V6.4763H30.6097V6.25767C30.6097 4.92768 31.384 4.26268 32.9326 4.26268C33.1877 4.26268 33.4883 4.29001 33.8345 4.34467V0.846604C33.4154 0.755509 32.9326 0.709961 32.3861 0.709961C30.5277 0.709961 29.0793 1.19277 28.0408 2.15838C27.0205 3.12399 26.5104 4.49042 26.5104 6.25767V6.4763H23.9962V10.029H26.5104V21.3977Z" fill="white"/>
<path d="M35.9157 21.3977H40.015V13.3631C40.015 12.2517 40.3247 11.3955 40.9442 10.7942C41.5636 10.1748 42.3744 9.86505 43.3764 9.86505H44.6609V6.31233H43.7864C42.8754 6.31233 42.0647 6.48541 41.3541 6.83157C40.6618 7.15951 40.1243 7.78807 39.7417 8.71725V6.4763H35.9157V21.3977Z" fill="white"/>
<path d="M48.7805 27.4647C51.5133 27.4647 53.4901 25.9069 54.7108 22.7915L61.1057 6.4763H56.7058L53.1804 16.0686L49.655 6.4763H45.2551L51.1307 21.3977L50.8574 22.0263C50.6388 22.5182 50.3564 22.9555 50.0103 23.3381C49.6641 23.7207 49.0902 23.912 48.2885 23.912C47.6327 23.912 47.0132 23.8209 46.4302 23.6387V27.0001C46.7399 27.1641 47.0952 27.2825 47.496 27.3554C47.9151 27.4282 48.3432 27.4647 48.7805 27.4647Z" fill="white"/>
</g>
</svg>
