<svg width="17" height="16" viewBox="0 0 17 16" fill="none" xmlns="http://www.w3.org/2000/svg">
<path d="M12.4465 5.45312H8.29316H4.55317C3.91317 5.45312 3.59317 6.22646 4.0465 6.67979L7.49983 10.1331C8.05317 10.6865 8.95317 10.6865 9.5065 10.1331L10.8198 8.81979L12.9598 6.67979C13.4065 6.22646 13.0865 5.45312 12.4465 5.45312Z" fill="#8C89B4"/>
<path d="M12.4465 5.45312H8.29316H4.55317C3.91317 5.45312 3.59317 6.22646 4.0465 6.67979L7.49983 10.1331C8.05317 10.6865 8.95317 10.6865 9.5065 10.1331L10.8198 8.81979L12.9598 6.67979C13.4065 6.22646 13.0865 5.45312 12.4465 5.45312Z" fill="#8C89B4"/>
<path d="M12.4465 5.45312H8.29316H4.55317C3.91317 5.45312 3.59317 6.22646 4.0465 6.67979L7.49983 10.1331C8.05317 10.6865 8.95317 10.6865 9.5065 10.1331L10.8198 8.81979L12.9598 6.67979C13.4065 6.22646 13.0865 5.45312 12.4465 5.45312Z" fill="#8C89B4"/>
<path d="M12.4465 5.45312H8.29316H4.55317C3.91317 5.45312 3.59317 6.22646 4.0465 6.67979L7.49983 10.1331C8.05317 10.6865 8.95317 10.6865 9.5065 10.1331L10.8198 8.81979L12.9598 6.67979C13.4065 6.22646 13.0865 5.45312 12.4465 5.45312Z" fill="#8C89B4"/>
<path d="M12.4465 5.45312H8.29316H4.55317C3.91317 5.45312 3.59317 6.22646 4.0465 6.67979L7.49983 10.1331C8.05317 10.6865 8.95317 10.6865 9.5065 10.1331L10.8198 8.81979L12.9598 6.67979C13.4065 6.22646 13.0865 5.45312 12.4465 5.45312Z" fill="#8C89B4"/>
<path d="M12.4465 5.45312H8.29316H4.55317C3.91317 5.45312 3.59317 6.22646 4.0465 6.67979L7.49983 10.1331C8.05317 10.6865 8.95317 10.6865 9.5065 10.1331L10.8198 8.81979L12.9598 6.67979C13.4065 6.22646 13.0865 5.45312 12.4465 5.45312Z" fill="#8C89B4"/>
</svg>
