<svg width="391" height="198" viewBox="0 0 391 198" fill="none" xmlns="http://www.w3.org/2000/svg">
<rect y="0.0693359" width="391" height="197.598" rx="20" fill="url(#paint0_linear_14_132)"/>
<mask id="mask0_14_132" style="mask-type:alpha" maskUnits="userSpaceOnUse" x="0" y="0" width="391" height="198">
<rect y="0.0693359" width="391" height="197.598" rx="20" fill="#ED713C"/>
</mask>
<g mask="url(#mask0_14_132)">
<ellipse opacity="0.1" cx="30.4123" cy="228.811" rx="199.224" ry="121.351" fill="black"/>
<ellipse opacity="0.08" cx="360.588" cy="-31.0738" rx="199.224" ry="121.351" fill="black"/>
</g>
<path d="M316.636 170.041C315.922 170.041 315.294 169.871 314.753 169.53C314.216 169.19 313.799 168.676 313.5 167.99C313.201 167.304 313.052 166.441 313.052 165.4C313.052 164.364 313.201 163.503 313.5 162.817C313.799 162.131 314.216 161.62 314.753 161.284C315.294 160.948 315.922 160.78 316.636 160.78C317.345 160.78 317.968 160.948 318.505 161.284C319.042 161.62 319.459 162.131 319.758 162.817C320.061 163.503 320.213 164.364 320.213 165.4C320.213 166.441 320.061 167.304 319.758 167.99C319.459 168.676 319.042 169.19 318.505 169.53C317.968 169.871 317.345 170.041 316.636 170.041ZM316.636 168.816C317.345 168.816 317.889 168.522 318.267 167.934C318.65 167.342 318.841 166.497 318.841 165.4C318.841 164.308 318.65 163.466 318.267 162.873C317.889 162.281 317.345 161.984 316.636 161.984C315.927 161.984 315.381 162.281 314.998 162.873C314.62 163.466 314.431 164.308 314.431 165.4C314.431 166.497 314.62 167.342 314.998 167.934C315.381 168.522 315.927 168.816 316.636 168.816ZM325.457 170.041C324.86 170.041 324.325 169.922 323.854 169.684C323.383 169.442 323.009 169.108 322.734 168.683C322.459 168.259 322.321 167.771 322.321 167.22H323.707C323.726 167.706 323.889 168.093 324.197 168.382C324.505 168.672 324.911 168.816 325.415 168.816C325.952 168.816 326.383 168.665 326.71 168.361C327.041 168.053 327.284 167.619 327.438 167.059C327.592 166.499 327.669 165.844 327.669 165.092C327.669 164.929 327.664 164.775 327.655 164.63C327.646 164.481 327.629 164.32 327.606 164.147C327.531 164.656 327.375 165.074 327.137 165.4C326.904 165.722 326.61 165.963 326.255 166.121C325.9 166.275 325.506 166.352 325.072 166.352C324.531 166.352 324.048 166.233 323.623 165.995C323.198 165.757 322.862 165.428 322.615 165.008C322.372 164.584 322.251 164.098 322.251 163.552C322.251 162.992 322.382 162.505 322.643 162.089C322.904 161.674 323.268 161.352 323.735 161.123C324.202 160.895 324.743 160.78 325.359 160.78C325.877 160.78 326.358 160.885 326.801 161.095C327.249 161.305 327.636 161.606 327.963 161.998C328.294 162.39 328.551 162.859 328.733 163.405C328.92 163.951 329.013 164.563 329.013 165.239C329.013 166.219 328.882 167.069 328.621 167.787C328.364 168.506 327.972 169.061 327.445 169.453C326.922 169.845 326.26 170.041 325.457 170.041ZM325.366 165.218C325.683 165.218 325.973 165.148 326.234 165.008C326.5 164.868 326.71 164.679 326.864 164.441C327.018 164.199 327.095 163.923 327.095 163.615C327.095 163.111 326.925 162.715 326.584 162.425C326.248 162.136 325.84 161.991 325.359 161.991C324.869 161.991 324.458 162.136 324.127 162.425C323.796 162.715 323.63 163.111 323.63 163.615C323.63 164.115 323.796 164.507 324.127 164.791C324.458 165.076 324.871 165.218 325.366 165.218ZM330.98 170.916L334.529 159.541H335.887L332.317 170.916H330.98ZM337.853 169.859V168.452C337.853 167.944 337.932 167.517 338.091 167.171C338.25 166.821 338.481 166.53 338.784 166.296C339.087 166.063 339.456 165.862 339.89 165.694L341.682 164.994C342.111 164.822 342.431 164.602 342.641 164.336C342.851 164.07 342.956 163.741 342.956 163.349C342.956 162.943 342.814 162.607 342.529 162.341C342.244 162.075 341.841 161.942 341.318 161.942C340.809 161.942 340.387 162.059 340.051 162.292C339.72 162.521 339.531 162.864 339.484 163.321H338.007C338.03 162.766 338.184 162.299 338.469 161.921C338.754 161.543 339.139 161.259 339.624 161.067C340.109 160.876 340.667 160.78 341.297 160.78C341.885 160.78 342.412 160.892 342.879 161.116C343.346 161.34 343.714 161.651 343.985 162.047C344.26 162.444 344.398 162.901 344.398 163.419C344.398 163.881 344.314 164.285 344.146 164.63C343.978 164.971 343.731 165.267 343.404 165.519C343.077 165.771 342.681 165.991 342.214 166.177L340.394 166.898C339.983 167.057 339.678 167.244 339.477 167.458C339.281 167.668 339.183 167.944 339.183 168.284V168.634H344.328V169.859H337.853ZM349.789 170.041C349.191 170.041 348.655 169.936 348.179 169.726C347.703 169.512 347.325 169.201 347.045 168.795C346.765 168.385 346.62 167.885 346.611 167.297H347.955C347.955 167.801 348.13 168.182 348.48 168.438C348.834 168.69 349.271 168.816 349.789 168.816C350.367 168.816 350.829 168.637 351.175 168.277C351.52 167.913 351.693 167.468 351.693 166.94C351.693 165.895 351.009 165.372 349.642 165.372H347.108L347.507 160.941H352.624V162.159H348.578L348.844 161.739L348.564 164.644L348.424 164.511C348.648 164.46 348.907 164.423 349.201 164.399C349.495 164.376 349.754 164.364 349.978 164.364C350.92 164.364 351.669 164.584 352.225 165.022C352.785 165.456 353.065 166.096 353.065 166.94C353.065 167.524 352.929 168.051 352.659 168.522C352.393 168.989 352.015 169.36 351.525 169.635C351.035 169.906 350.456 170.041 349.789 170.041Z" fill="white"/>
<path opacity="0.9" d="M41.2763 170.041C40.679 170.041 40.1423 169.936 39.6663 169.726C39.1903 169.512 38.8123 169.201 38.5323 168.795C38.2523 168.385 38.1076 167.885 38.0983 167.297H39.4423C39.4423 167.801 39.6173 168.182 39.9673 168.438C40.322 168.69 40.7583 168.816 41.2763 168.816C41.855 168.816 42.317 168.637 42.6623 168.277C43.0076 167.913 43.1803 167.468 43.1803 166.94C43.1803 165.895 42.4966 165.372 41.1293 165.372H38.5953L38.9943 160.941H44.1113V162.159H40.0653L40.3313 161.739L40.0513 164.644L39.9113 164.511C40.1353 164.46 40.3943 164.423 40.6883 164.399C40.9823 164.376 41.2413 164.364 41.4653 164.364C42.408 164.364 43.157 164.584 43.7123 165.022C44.2723 165.456 44.5523 166.096 44.5523 166.94C44.5523 167.524 44.417 168.051 44.1463 168.522C43.8803 168.989 43.5023 169.36 43.0123 169.635C42.5223 169.906 41.9436 170.041 41.2763 170.041ZM46.624 169.859V168.452C46.624 167.944 46.7034 167.517 46.862 167.171C47.0207 166.821 47.2517 166.53 47.555 166.296C47.8584 166.063 48.227 165.862 48.661 165.694L50.453 164.994C50.8824 164.822 51.202 164.602 51.412 164.336C51.622 164.07 51.727 163.741 51.727 163.349C51.727 162.943 51.5847 162.607 51.3 162.341C51.0154 162.075 50.6117 161.942 50.089 161.942C49.5804 161.942 49.158 162.059 48.822 162.292C48.4907 162.521 48.3017 162.864 48.255 163.321H46.778C46.8014 162.766 46.9554 162.299 47.24 161.921C47.5247 161.543 47.9097 161.259 48.395 161.067C48.8804 160.876 49.438 160.78 50.068 160.78C50.656 160.78 51.1834 160.892 51.65 161.116C52.1167 161.34 52.4854 161.651 52.756 162.047C53.0314 162.444 53.169 162.901 53.169 163.419C53.169 163.881 53.085 164.285 52.917 164.63C52.749 164.971 52.5017 165.267 52.175 165.519C51.8484 165.771 51.4517 165.991 50.985 166.177L49.165 166.898C48.7544 167.057 48.4487 167.244 48.248 167.458C48.052 167.668 47.954 167.944 47.954 168.284V168.634H53.099V169.859H46.624ZM58.9165 170.041C58.1885 170.041 57.5492 169.929 56.9985 169.705C56.4525 169.481 56.0255 169.173 55.7175 168.781C55.4095 168.389 55.2555 167.948 55.2555 167.458C55.2555 167.02 55.3698 166.646 55.5985 166.338C55.8318 166.026 56.1468 165.785 56.5435 165.617C56.9448 165.449 57.3975 165.365 57.9015 165.365C58.0648 165.365 58.2188 165.377 58.3635 165.4C58.5082 165.419 58.6692 165.452 58.8465 165.498V165.855C58.4078 165.855 58.0228 165.925 57.6915 166.065C57.3602 166.201 57.1012 166.38 56.9145 166.604C56.7278 166.828 56.6345 167.073 56.6345 167.339C56.6345 167.652 56.7348 167.92 56.9355 168.144C57.1362 168.364 57.4092 168.532 57.7545 168.648C58.0998 168.76 58.4872 168.816 58.9165 168.816C59.6585 168.816 60.2232 168.707 60.6105 168.487C61.0025 168.268 61.1985 167.983 61.1985 167.633C61.1985 167.353 61.0982 167.12 60.8975 166.933C60.7015 166.742 60.4262 166.581 60.0715 166.45L57.5795 165.491C57.2808 165.379 56.9752 165.221 56.6625 165.015C56.3498 164.81 56.0862 164.556 55.8715 164.252C55.6615 163.944 55.5565 163.583 55.5565 163.167C55.5565 162.691 55.6872 162.274 55.9485 161.914C56.2145 161.555 56.5972 161.277 57.0965 161.081C57.6005 160.881 58.2072 160.78 58.9165 160.78C59.5512 160.78 60.1205 160.89 60.6245 161.109C61.1332 161.324 61.5322 161.62 61.8215 161.998C62.1108 162.372 62.2555 162.801 62.2555 163.286C62.2555 163.641 62.1622 163.972 61.9755 164.28C61.7888 164.584 61.5158 164.829 61.1565 165.015C60.7972 165.202 60.3585 165.295 59.8405 165.295C59.6912 165.295 59.5512 165.286 59.4205 165.267C59.2945 165.244 59.1475 165.207 58.9795 165.155V164.749C59.3295 164.749 59.6468 164.693 59.9315 164.581C60.2208 164.465 60.4495 164.301 60.6175 164.091C60.7902 163.881 60.8765 163.639 60.8765 163.363C60.8765 163.093 60.7925 162.855 60.6245 162.649C60.4612 162.439 60.2325 162.276 59.9385 162.159C59.6445 162.043 59.3038 161.984 58.9165 161.984C58.5432 161.984 58.2072 162.04 57.9085 162.152C57.6098 162.26 57.3742 162.407 57.2015 162.593C57.0288 162.78 56.9425 162.988 56.9425 163.216C56.9425 163.496 57.0358 163.723 57.2225 163.895C57.4138 164.063 57.6822 164.213 58.0275 164.343L60.5545 165.316C61.2078 165.568 61.7095 165.862 62.0595 166.198C62.4095 166.53 62.5845 166.987 62.5845 167.57C62.5845 168.051 62.4398 168.478 62.1505 168.851C61.8612 169.225 61.4435 169.516 60.8975 169.726C60.3515 169.936 59.6912 170.041 58.9165 170.041ZM64.6865 169.859V168.452C64.6865 167.944 64.7659 167.517 64.9245 167.171C65.0832 166.821 65.3142 166.53 65.6175 166.296C65.9209 166.063 66.2895 165.862 66.7235 165.694L68.5155 164.994C68.9449 164.822 69.2645 164.602 69.4745 164.336C69.6845 164.07 69.7895 163.741 69.7895 163.349C69.7895 162.943 69.6472 162.607 69.3625 162.341C69.0779 162.075 68.6742 161.942 68.1515 161.942C67.6429 161.942 67.2205 162.059 66.8845 162.292C66.5532 162.521 66.3642 162.864 66.3175 163.321H64.8405C64.8639 162.766 65.0179 162.299 65.3025 161.921C65.5872 161.543 65.9722 161.259 66.4575 161.067C66.9429 160.876 67.5005 160.78 68.1305 160.78C68.7185 160.78 69.2459 160.892 69.7125 161.116C70.1792 161.34 70.5479 161.651 70.8185 162.047C71.0939 162.444 71.2315 162.901 71.2315 163.419C71.2315 163.881 71.1475 164.285 70.9795 164.63C70.8115 164.971 70.5642 165.267 70.2375 165.519C69.9109 165.771 69.5142 165.991 69.0475 166.177L67.2275 166.898C66.8169 167.057 66.5112 167.244 66.3105 167.458C66.1145 167.668 66.0165 167.944 66.0165 168.284V168.634H71.1615V169.859H64.6865ZM80.757 170.041C80.2996 170.041 79.8586 169.978 79.434 169.852C79.0093 169.722 78.6266 169.535 78.286 169.292C77.95 169.045 77.684 168.739 77.488 168.375C77.292 168.007 77.194 167.582 77.194 167.101H78.58C78.594 167.465 78.6966 167.776 78.888 168.032C79.0793 168.289 79.336 168.485 79.658 168.62C79.98 168.751 80.3463 168.816 80.757 168.816C81.373 168.816 81.8513 168.669 82.192 168.375C82.5373 168.081 82.71 167.713 82.71 167.269C82.71 166.985 82.6376 166.735 82.493 166.52C82.353 166.306 82.1313 166.14 81.828 166.023C81.5293 165.902 81.1396 165.841 80.659 165.841H79.574V164.791H80.4C81.016 164.791 81.5013 164.665 81.856 164.413C82.2106 164.157 82.388 163.809 82.388 163.37C82.388 162.978 82.241 162.649 81.947 162.383C81.653 162.117 81.226 161.984 80.666 161.984C80.2226 161.984 79.8283 162.075 79.483 162.257C79.1376 162.435 78.909 162.754 78.797 163.216H77.418C77.488 162.638 77.67 162.169 77.964 161.809C78.258 161.45 78.6336 161.189 79.091 161.025C79.5483 160.862 80.0593 160.78 80.624 160.78C81.2353 160.78 81.7813 160.885 82.262 161.095C82.7473 161.301 83.1276 161.588 83.403 161.956C83.6783 162.325 83.816 162.75 83.816 163.23C83.816 163.692 83.6853 164.091 83.424 164.427C83.1673 164.759 82.7916 165.013 82.297 165.19C82.8476 165.358 83.2956 165.627 83.641 165.995C83.9863 166.359 84.159 166.821 84.159 167.381C84.159 167.899 84.019 168.359 83.739 168.76C83.459 169.162 83.0646 169.477 82.556 169.705C82.0473 169.929 81.4476 170.041 80.757 170.041ZM90.4132 160.829H91.6802V166.639H93.2272V167.773H91.6802V169.859H90.3642V167.773H85.7932V166.758L90.4132 160.829ZM90.4202 162.859L87.3682 166.758H90.4202V162.859ZM98.0283 170.041C97.4309 170.041 96.8943 169.936 96.4183 169.726C95.9423 169.512 95.5643 169.201 95.2843 168.795C95.0043 168.385 94.8596 167.885 94.8503 167.297H96.1943C96.1943 167.801 96.3693 168.182 96.7193 168.438C97.0739 168.69 97.5103 168.816 98.0283 168.816C98.6069 168.816 99.0689 168.637 99.4143 168.277C99.7596 167.913 99.9323 167.468 99.9323 166.94C99.9323 165.895 99.2486 165.372 97.8813 165.372H95.3473L95.7463 160.941H100.863V162.159H96.8173L97.0833 161.739L96.8033 164.644L96.6633 164.511C96.8873 164.46 97.1463 164.423 97.4403 164.399C97.7343 164.376 97.9933 164.364 98.2173 164.364C99.1599 164.364 99.9089 164.584 100.464 165.022C101.024 165.456 101.304 166.096 101.304 166.94C101.304 167.524 101.169 168.051 100.898 168.522C100.632 168.989 100.254 169.36 99.7643 169.635C99.2743 169.906 98.6956 170.041 98.0283 170.041ZM106.841 170.041C106.113 170.041 105.474 169.845 104.923 169.453C104.377 169.061 103.952 168.529 103.649 167.857C103.346 167.181 103.194 166.413 103.194 165.554C103.194 164.546 103.348 163.688 103.656 162.978C103.964 162.264 104.4 161.721 104.965 161.347C105.53 160.969 106.197 160.78 106.967 160.78C107.522 160.78 108.012 160.885 108.437 161.095C108.862 161.301 109.2 161.59 109.452 161.963C109.704 162.337 109.849 162.773 109.886 163.272H108.451C108.39 162.876 108.243 162.563 108.01 162.334C107.777 162.101 107.441 161.984 107.002 161.984C106.237 161.984 105.632 162.318 105.189 162.985C104.75 163.653 104.531 164.563 104.531 165.715C104.531 165.874 104.533 166.054 104.538 166.254C104.547 166.455 104.566 166.642 104.594 166.814C104.65 166.212 104.802 165.741 105.049 165.4C105.296 165.055 105.602 164.81 105.966 164.665C106.335 164.521 106.722 164.448 107.128 164.448C107.674 164.448 108.159 164.567 108.584 164.805C109.013 165.043 109.349 165.375 109.592 165.799C109.839 166.219 109.963 166.702 109.963 167.248C109.963 167.804 109.832 168.291 109.571 168.711C109.31 169.131 108.943 169.458 108.472 169.691C108.001 169.925 107.457 170.041 106.841 170.041ZM106.841 168.816C107.336 168.816 107.749 168.672 108.08 168.382C108.411 168.088 108.577 167.696 108.577 167.206C108.577 166.698 108.411 166.301 108.08 166.016C107.749 165.727 107.336 165.582 106.841 165.582C106.514 165.582 106.22 165.652 105.959 165.792C105.702 165.928 105.497 166.119 105.343 166.366C105.194 166.609 105.119 166.889 105.119 167.206C105.119 167.696 105.285 168.088 105.616 168.382C105.947 168.672 106.356 168.816 106.841 168.816ZM115.871 169.859L120.064 162.215H115.472V160.941H121.632V162.194L117.656 169.859H115.871ZM126.772 170.041C126.044 170.041 125.405 169.929 124.854 169.705C124.308 169.481 123.881 169.173 123.573 168.781C123.265 168.389 123.111 167.948 123.111 167.458C123.111 167.02 123.225 166.646 123.454 166.338C123.687 166.026 124.002 165.785 124.399 165.617C124.8 165.449 125.253 165.365 125.757 165.365C125.92 165.365 126.074 165.377 126.219 165.4C126.364 165.419 126.525 165.452 126.702 165.498V165.855C126.263 165.855 125.878 165.925 125.547 166.065C125.216 166.201 124.957 166.38 124.77 166.604C124.583 166.828 124.49 167.073 124.49 167.339C124.49 167.652 124.59 167.92 124.791 168.144C124.992 168.364 125.265 168.532 125.61 168.648C125.955 168.76 126.343 168.816 126.772 168.816C127.514 168.816 128.079 168.707 128.466 168.487C128.858 168.268 129.054 167.983 129.054 167.633C129.054 167.353 128.954 167.12 128.753 166.933C128.557 166.742 128.282 166.581 127.927 166.45L125.435 165.491C125.136 165.379 124.831 165.221 124.518 165.015C124.205 164.81 123.942 164.556 123.727 164.252C123.517 163.944 123.412 163.583 123.412 163.167C123.412 162.691 123.543 162.274 123.804 161.914C124.07 161.555 124.453 161.277 124.952 161.081C125.456 160.881 126.063 160.78 126.772 160.78C127.407 160.78 127.976 160.89 128.48 161.109C128.989 161.324 129.388 161.62 129.677 161.998C129.966 162.372 130.111 162.801 130.111 163.286C130.111 163.641 130.018 163.972 129.831 164.28C129.644 164.584 129.371 164.829 129.012 165.015C128.653 165.202 128.214 165.295 127.696 165.295C127.547 165.295 127.407 165.286 127.276 165.267C127.15 165.244 127.003 165.207 126.835 165.155V164.749C127.185 164.749 127.502 164.693 127.787 164.581C128.076 164.465 128.305 164.301 128.473 164.091C128.646 163.881 128.732 163.639 128.732 163.363C128.732 163.093 128.648 162.855 128.48 162.649C128.317 162.439 128.088 162.276 127.794 162.159C127.5 162.043 127.159 161.984 126.772 161.984C126.399 161.984 126.063 162.04 125.764 162.152C125.465 162.26 125.23 162.407 125.057 162.593C124.884 162.78 124.798 162.988 124.798 163.216C124.798 163.496 124.891 163.723 125.078 163.895C125.269 164.063 125.538 164.213 125.883 164.343L128.41 165.316C129.063 165.568 129.565 165.862 129.915 166.198C130.265 166.53 130.44 166.987 130.44 167.57C130.44 168.051 130.295 168.478 130.006 168.851C129.717 169.225 129.299 169.516 128.753 169.726C128.207 169.936 127.547 170.041 126.772 170.041ZM135.72 170.041C135.123 170.041 134.588 169.922 134.117 169.684C133.646 169.442 133.272 169.108 132.997 168.683C132.722 168.259 132.584 167.771 132.584 167.22H133.97C133.989 167.706 134.152 168.093 134.46 168.382C134.768 168.672 135.174 168.816 135.678 168.816C136.215 168.816 136.646 168.665 136.973 168.361C137.304 168.053 137.547 167.619 137.701 167.059C137.855 166.499 137.932 165.844 137.932 165.092C137.932 164.929 137.927 164.775 137.918 164.63C137.909 164.481 137.892 164.32 137.869 164.147C137.794 164.656 137.638 165.074 137.4 165.4C137.167 165.722 136.873 165.963 136.518 166.121C136.163 166.275 135.769 166.352 135.335 166.352C134.794 166.352 134.311 166.233 133.886 165.995C133.461 165.757 133.125 165.428 132.878 165.008C132.635 164.584 132.514 164.098 132.514 163.552C132.514 162.992 132.645 162.505 132.906 162.089C133.167 161.674 133.531 161.352 133.998 161.123C134.465 160.895 135.006 160.78 135.622 160.78C136.14 160.78 136.621 160.885 137.064 161.095C137.512 161.305 137.899 161.606 138.226 161.998C138.557 162.39 138.814 162.859 138.996 163.405C139.183 163.951 139.276 164.563 139.276 165.239C139.276 166.219 139.145 167.069 138.884 167.787C138.627 168.506 138.235 169.061 137.708 169.453C137.185 169.845 136.523 170.041 135.72 170.041ZM135.629 165.218C135.946 165.218 136.236 165.148 136.497 165.008C136.763 164.868 136.973 164.679 137.127 164.441C137.281 164.199 137.358 163.923 137.358 163.615C137.358 163.111 137.188 162.715 136.847 162.425C136.511 162.136 136.103 161.991 135.622 161.991C135.132 161.991 134.721 162.136 134.39 162.425C134.059 162.715 133.893 163.111 133.893 163.615C133.893 164.115 134.059 164.507 134.39 164.791C134.721 165.076 135.134 165.218 135.629 165.218ZM144.743 170.041C144.029 170.041 143.401 169.871 142.86 169.53C142.323 169.19 141.905 168.676 141.607 167.99C141.308 167.304 141.159 166.441 141.159 165.4C141.159 164.364 141.308 163.503 141.607 162.817C141.905 162.131 142.323 161.62 142.86 161.284C143.401 160.948 144.029 160.78 144.743 160.78C145.452 160.78 146.075 160.948 146.612 161.284C147.148 161.62 147.566 162.131 147.865 162.817C148.168 163.503 148.32 164.364 148.32 165.4C148.32 166.441 148.168 167.304 147.865 167.99C147.566 168.676 147.148 169.19 146.612 169.53C146.075 169.871 145.452 170.041 144.743 170.041ZM144.743 168.816C145.452 168.816 145.996 168.522 146.374 167.934C146.756 167.342 146.948 166.497 146.948 165.4C146.948 164.308 146.756 163.466 146.374 162.873C145.996 162.281 145.452 161.984 144.743 161.984C144.033 161.984 143.487 162.281 143.105 162.873C142.727 163.466 142.538 164.308 142.538 165.4C142.538 166.497 142.727 167.342 143.105 167.934C143.487 168.522 144.033 168.816 144.743 168.816ZM155.802 160.906H156.838V169.859H155.508V162.481C155.274 162.617 155.036 162.722 154.794 162.796C154.551 162.866 154.308 162.906 154.066 162.915V161.627C154.369 161.59 154.663 161.515 154.948 161.403C155.237 161.287 155.522 161.121 155.802 160.906ZM159.589 169.859V168.452C159.589 167.944 159.668 167.517 159.827 167.171C159.986 166.821 160.217 166.53 160.52 166.296C160.823 166.063 161.192 165.862 161.626 165.694L163.418 164.994C163.847 164.822 164.167 164.602 164.377 164.336C164.587 164.07 164.692 163.741 164.692 163.349C164.692 162.943 164.55 162.607 164.265 162.341C163.98 162.075 163.577 161.942 163.054 161.942C162.545 161.942 162.123 162.059 161.787 162.292C161.456 162.521 161.267 162.864 161.22 163.321H159.743C159.766 162.766 159.92 162.299 160.205 161.921C160.49 161.543 160.875 161.259 161.36 161.067C161.845 160.876 162.403 160.78 163.033 160.78C163.621 160.78 164.148 160.892 164.615 161.116C165.082 161.34 165.45 161.651 165.721 162.047C165.996 162.444 166.134 162.901 166.134 163.419C166.134 163.881 166.05 164.285 165.882 164.63C165.714 164.971 165.467 165.267 165.14 165.519C164.813 165.771 164.417 165.991 163.95 166.177L162.13 166.898C161.719 167.057 161.414 167.244 161.213 167.458C161.017 167.668 160.919 167.944 160.919 168.284V168.634H166.064V169.859H159.589ZM171.881 170.041C171.153 170.041 170.514 169.929 169.963 169.705C169.417 169.481 168.99 169.173 168.682 168.781C168.374 168.389 168.22 167.948 168.22 167.458C168.22 167.02 168.335 166.646 168.563 166.338C168.797 166.026 169.112 165.785 169.508 165.617C169.91 165.449 170.362 165.365 170.866 165.365C171.03 165.365 171.184 165.377 171.328 165.4C171.473 165.419 171.634 165.452 171.811 165.498V165.855C171.373 165.855 170.988 165.925 170.656 166.065C170.325 166.201 170.066 166.38 169.879 166.604C169.693 166.828 169.599 167.073 169.599 167.339C169.599 167.652 169.7 167.92 169.9 168.144C170.101 168.364 170.374 168.532 170.719 168.648C171.065 168.76 171.452 168.816 171.881 168.816C172.623 168.816 173.188 168.707 173.575 168.487C173.967 168.268 174.163 167.983 174.163 167.633C174.163 167.353 174.063 167.12 173.862 166.933C173.666 166.742 173.391 166.581 173.036 166.45L170.544 165.491C170.246 165.379 169.94 165.221 169.627 165.015C169.315 164.81 169.051 164.556 168.836 164.252C168.626 163.944 168.521 163.583 168.521 163.167C168.521 162.691 168.652 162.274 168.913 161.914C169.179 161.555 169.562 161.277 170.061 161.081C170.565 160.881 171.172 160.78 171.881 160.78C172.516 160.78 173.085 160.89 173.589 161.109C174.098 161.324 174.497 161.62 174.786 161.998C175.076 162.372 175.22 162.801 175.22 163.286C175.22 163.641 175.127 163.972 174.94 164.28C174.754 164.584 174.481 164.829 174.121 165.015C173.762 165.202 173.323 165.295 172.805 165.295C172.656 165.295 172.516 165.286 172.385 165.267C172.259 165.244 172.112 165.207 171.944 165.155V164.749C172.294 164.749 172.612 164.693 172.896 164.581C173.186 164.465 173.414 164.301 173.582 164.091C173.755 163.881 173.841 163.639 173.841 163.363C173.841 163.093 173.757 162.855 173.589 162.649C173.426 162.439 173.197 162.276 172.903 162.159C172.609 162.043 172.269 161.984 171.881 161.984C171.508 161.984 171.172 162.04 170.873 162.152C170.575 162.26 170.339 162.407 170.166 162.593C169.994 162.78 169.907 162.988 169.907 163.216C169.907 163.496 170.001 163.723 170.187 163.895C170.379 164.063 170.647 164.213 170.992 164.343L173.519 165.316C174.173 165.568 174.674 165.862 175.024 166.198C175.374 166.53 175.549 166.987 175.549 167.57C175.549 168.051 175.405 168.478 175.115 168.851C174.826 169.225 174.408 169.516 173.862 169.726C173.316 169.936 172.656 170.041 171.881 170.041ZM180.829 170.041C180.232 170.041 179.698 169.922 179.226 169.684C178.755 169.442 178.382 169.108 178.106 168.683C177.831 168.259 177.693 167.771 177.693 167.22H179.079C179.098 167.706 179.261 168.093 179.569 168.382C179.877 168.672 180.283 168.816 180.787 168.816C181.324 168.816 181.756 168.665 182.082 168.361C182.414 168.053 182.656 167.619 182.81 167.059C182.964 166.499 183.041 165.844 183.041 165.092C183.041 164.929 183.037 164.775 183.027 164.63C183.018 164.481 183.002 164.32 182.978 164.147C182.904 164.656 182.747 165.074 182.509 165.4C182.276 165.722 181.982 165.963 181.627 166.121C181.273 166.275 180.878 166.352 180.444 166.352C179.903 166.352 179.42 166.233 178.995 165.995C178.571 165.757 178.235 165.428 177.987 165.008C177.745 164.584 177.623 164.098 177.623 163.552C177.623 162.992 177.754 162.505 178.015 162.089C178.277 161.674 178.641 161.352 179.107 161.123C179.574 160.895 180.115 160.78 180.731 160.78C181.249 160.78 181.73 160.885 182.173 161.095C182.621 161.305 183.009 161.606 183.335 161.998C183.667 162.39 183.923 162.859 184.105 163.405C184.292 163.951 184.385 164.563 184.385 165.239C184.385 166.219 184.255 167.069 183.993 167.787C183.737 168.506 183.345 169.061 182.817 169.453C182.295 169.845 181.632 170.041 180.829 170.041ZM180.738 165.218C181.056 165.218 181.345 165.148 181.606 165.008C181.872 164.868 182.082 164.679 182.236 164.441C182.39 164.199 182.467 163.923 182.467 163.615C182.467 163.111 182.297 162.715 181.956 162.425C181.62 162.136 181.212 161.991 180.731 161.991C180.241 161.991 179.831 162.136 179.499 162.425C179.168 162.715 179.002 163.111 179.002 163.615C179.002 164.115 179.168 164.507 179.499 164.791C179.831 165.076 180.244 165.218 180.738 165.218Z" fill="white"/>
<path d="M318.283 30.1108H333.386V53.5891H318.283V30.1108Z" fill="#FF5F00"/>
<path d="M308.071 65.4065V62.9178C308.071 61.9635 307.4 61.3415 306.249 61.3415C305.674 61.3415 305.05 61.5074 304.619 62.0467C304.283 61.5903 303.804 61.3415 303.085 61.3415C302.605 61.3415 302.126 61.4658 301.742 61.9221V61.4244H300.735V65.4065H301.742V63.208C301.742 62.503 302.174 62.171 302.845 62.171C303.516 62.171 303.852 62.5444 303.852 63.208V65.4065H304.859V63.208C304.859 62.503 305.338 62.171 305.961 62.171C306.633 62.171 306.968 62.5444 306.968 63.208V65.4065H308.071ZM322.982 61.4244H321.352V60.2215H320.345V61.4244H319.434V62.2124H320.345V64.0377C320.345 64.9504 320.777 65.4895 321.927 65.4895C322.359 65.4895 322.838 65.3652 323.174 65.1992L322.886 64.4525C322.599 64.6184 322.263 64.66 322.023 64.66C321.544 64.66 321.352 64.4111 321.352 63.9961V62.2124H322.982V61.4244ZM331.517 61.3413C330.941 61.3413 330.558 61.5903 330.318 61.9221V61.4244H329.311V65.4065H330.318V63.1666C330.318 62.503 330.653 62.1296 331.277 62.1296C331.468 62.1296 331.708 62.1712 331.9 62.2126L332.188 61.3831C331.996 61.3415 331.708 61.3415 331.517 61.3415V61.3413ZM318.619 61.7562C318.14 61.4658 317.468 61.3415 316.749 61.3415C315.599 61.3415 314.832 61.8392 314.832 62.6273C314.832 63.2911 315.407 63.6643 316.414 63.7889L316.893 63.8304C317.421 63.9132 317.708 64.0377 317.708 64.2452C317.708 64.5354 317.325 64.7429 316.653 64.7429C315.982 64.7429 315.455 64.5354 315.119 64.3281L314.64 64.9918C315.167 65.3236 315.886 65.4895 316.605 65.4895C317.948 65.4895 318.715 64.9504 318.715 64.2036C318.715 63.4984 318.092 63.1251 317.133 63.0007L316.653 62.9591C316.222 62.9176 315.886 62.8348 315.886 62.586C315.886 62.2955 316.222 62.1296 316.749 62.1296C317.325 62.1296 317.9 62.3369 318.188 62.4614L318.619 61.7562ZM345.373 61.3415C344.797 61.3415 344.414 61.5903 344.174 61.9221V61.4244H343.167V65.4065H344.174V63.1666C344.174 62.503 344.51 62.1296 345.133 62.1296C345.325 62.1296 345.565 62.1712 345.756 62.2126L346.044 61.3831C345.852 61.3415 345.565 61.3415 345.373 61.3415ZM332.523 63.4155C332.523 64.6184 333.482 65.4895 334.969 65.4895C335.64 65.4895 336.119 65.3651 336.599 65.0333L336.119 64.3281C335.736 64.577 335.352 64.7013 334.921 64.7013C334.106 64.7013 333.53 64.2036 333.53 63.4155C333.53 62.6689 334.106 62.171 334.921 62.1296C335.352 62.1296 335.736 62.254 336.119 62.503L336.599 61.7978C336.119 61.4658 335.64 61.3415 334.969 61.3415C333.482 61.3415 332.523 62.2126 332.523 63.4155ZM341.825 63.4155V61.4244H340.818V61.9221C340.482 61.549 340.003 61.3415 339.38 61.3415C338.085 61.3415 337.078 62.2126 337.078 63.4155C337.078 64.6184 338.085 65.4895 339.38 65.4895C340.051 65.4895 340.53 65.2822 340.818 64.9088V65.4065H341.825V63.4155ZM338.133 63.4155C338.133 62.7103 338.66 62.1296 339.523 62.1296C340.338 62.1296 340.914 62.6689 340.914 63.4155C340.914 64.1207 340.338 64.7013 339.523 64.7013C338.66 64.6598 338.133 64.1207 338.133 63.4155ZM326.099 61.3415C324.756 61.3415 323.797 62.171 323.797 63.4155C323.797 64.66 324.756 65.4895 326.147 65.4895C326.818 65.4895 327.489 65.3236 328.017 64.9504L327.537 64.3281C327.153 64.577 326.674 64.7429 326.195 64.7429C325.571 64.7429 324.948 64.4941 324.804 63.7887H328.208V63.4571C328.256 62.171 327.393 61.3415 326.099 61.3415H326.099ZM326.099 62.0881C326.722 62.0881 327.154 62.42 327.249 63.0423H324.852C324.948 62.503 325.38 62.0881 326.099 62.0881ZM351.078 63.4155V59.8481H350.072V61.9221C349.736 61.549 349.256 61.3415 348.633 61.3415C347.339 61.3415 346.332 62.2126 346.332 63.4155C346.332 64.6184 347.339 65.4895 348.633 65.4895C349.304 65.4895 349.784 65.2822 350.072 64.9088V65.4065H351.078V63.4155ZM347.387 63.4155C347.387 62.7103 347.914 62.1296 348.777 62.1296C349.592 62.1296 350.167 62.6689 350.167 63.4155C350.167 64.1207 349.592 64.7013 348.777 64.7013C347.914 64.6598 347.387 64.1207 347.387 63.4155ZM313.729 63.4155V61.4244H312.722V61.9221C312.386 61.549 311.907 61.3415 311.283 61.3415C309.989 61.3415 308.982 62.2126 308.982 63.4155C308.982 64.6184 309.989 65.4895 311.283 65.4895C311.955 65.4895 312.434 65.2822 312.722 64.9088V65.4065H313.729V63.4155ZM309.989 63.4155C309.989 62.7103 310.516 62.1296 311.379 62.1296C312.194 62.1296 312.77 62.6689 312.77 63.4155C312.77 64.1207 312.194 64.7013 311.379 64.7013C310.516 64.6598 309.989 64.1207 309.989 63.4155Z" fill="white"/>
<path d="M319.241 41.8502C319.241 37.0799 321.83 32.8488 325.81 30.1109C322.885 28.1199 319.193 26.917 315.166 26.917C305.624 26.917 297.905 33.5953 297.905 41.8502C297.905 50.1048 305.624 56.7833 315.166 56.7833C319.193 56.7833 322.885 55.5804 325.81 53.5892C321.83 50.8929 319.241 46.6204 319.241 41.8502Z" fill="#EB001B"/>
<path d="M353.762 41.8502C353.762 50.1048 346.043 56.7833 336.501 56.7833C332.474 56.7833 328.782 55.5804 325.857 53.5892C329.885 50.8515 332.426 46.6204 332.426 41.8502C332.426 37.0799 329.837 32.8488 325.857 30.1109C328.782 28.1199 332.474 26.917 336.501 26.917C346.043 26.917 353.762 33.6369 353.762 41.8502H353.762Z" fill="#F79E1B"/>
<path d="M46.5893 82.2761C45.5906 82.2761 44.6386 82.1548 43.7333 81.9121C42.8373 81.6694 42.0393 81.3101 41.3393 80.8341C40.6486 80.3581 40.1073 79.7561 39.7153 79.0281C39.3233 78.3001 39.1273 77.4461 39.1273 76.4661H41.7313C41.7313 77.2501 41.932 77.8894 42.3333 78.3841C42.744 78.8788 43.3226 79.2428 44.0693 79.4761C44.816 79.7094 45.6933 79.8261 46.7013 79.8261C47.6066 79.8261 48.3533 79.7048 48.9413 79.4621C49.5386 79.2101 49.982 78.8788 50.2713 78.4681C50.57 78.0574 50.7193 77.6094 50.7193 77.1241C50.7193 76.4988 50.514 75.9668 50.1033 75.5281C49.702 75.0801 49.1233 74.7301 48.3673 74.4781L46.4913 73.8061V71.4681L49.5853 72.5181C50.92 72.9661 51.942 73.5588 52.6513 74.2961C53.3606 75.0334 53.7153 75.9994 53.7153 77.1941C53.7153 78.0434 53.4586 78.8554 52.9453 79.6301C52.432 80.4048 51.648 81.0394 50.5933 81.5341C49.5386 82.0288 48.204 82.2761 46.5893 82.2761ZM45.4273 84.5861V61.6821H47.4153V84.5861H45.4273ZM46.0153 73.8341L44.3213 73.2601C42.772 72.7468 41.5866 72.1401 40.7653 71.4401C39.944 70.7308 39.5333 69.7554 39.5333 68.5141C39.5333 67.1048 40.1166 65.9614 41.2833 65.0841C42.45 64.1974 44.1393 63.7541 46.3513 63.7541C48.386 63.7541 49.9446 64.1974 51.0273 65.0841C52.1193 65.9708 52.7913 67.1608 53.0433 68.6541H50.3833C50.2433 67.8888 49.828 67.2634 49.1373 66.7781C48.456 66.2928 47.5133 66.0501 46.3093 66.0501C45.0306 66.0501 44.06 66.2928 43.3973 66.7781C42.744 67.2541 42.4173 67.8608 42.4173 68.5981C42.4173 69.1768 42.59 69.6434 42.9353 69.9981C43.2806 70.3434 43.8313 70.6421 44.5873 70.8941L46.0153 71.4541V73.8341ZM63.663 82.2761C62.4683 82.2761 61.395 82.0661 60.443 81.6461C59.491 81.2168 58.735 80.5961 58.175 79.7841C57.615 78.9628 57.3256 77.9641 57.307 76.7881H59.995C59.995 77.7961 60.345 78.5568 61.045 79.0701C61.7543 79.5741 62.627 79.8261 63.663 79.8261C64.8203 79.8261 65.7443 79.4668 66.435 78.7481C67.1256 78.0201 67.471 77.1288 67.471 76.0741C67.471 73.9834 66.1036 72.9381 63.369 72.9381H58.301L59.099 64.0761H69.333V66.5121H61.241L61.773 65.6721L61.213 71.4821L60.933 71.2161C61.381 71.1134 61.899 71.0388 62.487 70.9921C63.075 70.9454 63.593 70.9221 64.041 70.9221C65.9263 70.9221 67.4243 71.3608 68.535 72.2381C69.655 73.1061 70.215 74.3848 70.215 76.0741C70.215 77.2408 69.9443 78.2954 69.403 79.2381C68.871 80.1714 68.115 80.9134 67.135 81.4641C66.155 82.0054 64.9976 82.2761 63.663 82.2761ZM74.3664 85.2861L72.3784 84.2921C72.9477 84.0028 73.4377 83.6808 73.8484 83.3261C74.2591 82.9714 74.5297 82.5468 74.6604 82.0521C74.2124 81.9868 73.8297 81.8141 73.5124 81.5341C73.1951 81.2541 73.0364 80.8854 73.0364 80.4281C73.0364 79.9614 73.2091 79.5694 73.5544 79.2521C73.9091 78.9254 74.3571 78.7621 74.8984 78.7621C75.5797 78.7621 76.1211 79.0048 76.5224 79.4901C76.9331 79.9754 77.1384 80.5541 77.1384 81.2261C77.1384 82.0008 76.8957 82.7568 76.4104 83.4941C75.9344 84.2408 75.2531 84.8381 74.3664 85.2861ZM79.4495 81.9121L87.8355 66.6241H78.6515V64.0761H90.9715V66.5821L83.0195 81.9121H79.4495ZM99.538 82.2761C98.3433 82.2761 97.27 82.0661 96.318 81.6461C95.366 81.2168 94.61 80.5961 94.05 79.7841C93.49 78.9628 93.2006 77.9641 93.182 76.7881H95.87C95.87 77.7961 96.22 78.5568 96.92 79.0701C97.6293 79.5741 98.502 79.8261 99.538 79.8261C100.695 79.8261 101.619 79.4668 102.31 78.7481C103.001 78.0201 103.346 77.1288 103.346 76.0741C103.346 73.9834 101.979 72.9381 99.244 72.9381H94.176L94.974 64.0761H105.208V66.5121H97.116L97.648 65.6721L97.088 71.4821L96.808 71.2161C97.256 71.1134 97.774 71.0388 98.362 70.9921C98.95 70.9454 99.468 70.9221 99.916 70.9221C101.801 70.9221 103.299 71.3608 104.41 72.2381C105.53 73.1061 106.09 74.3848 106.09 76.0741C106.09 77.2408 105.819 78.2954 105.278 79.2381C104.746 80.1714 103.99 80.9134 103.01 81.4641C102.03 82.0054 100.873 82.2761 99.538 82.2761ZM116.037 82.2761C114.609 82.2761 113.354 81.9354 112.271 81.2541C111.198 80.5728 110.363 79.5461 109.765 78.1741C109.168 76.8021 108.869 75.0754 108.869 72.9941C108.869 70.9221 109.168 69.2001 109.765 67.8281C110.363 66.4561 111.198 65.4341 112.271 64.7621C113.354 64.0901 114.609 63.7541 116.037 63.7541C117.456 63.7541 118.702 64.0901 119.775 64.7621C120.849 65.4341 121.684 66.4561 122.281 67.8281C122.888 69.2001 123.191 70.9221 123.191 72.9941C123.191 75.0754 122.888 76.8021 122.281 78.1741C121.684 79.5461 120.849 80.5728 119.775 81.2541C118.702 81.9354 117.456 82.2761 116.037 82.2761ZM116.037 79.8261C117.456 79.8261 118.543 79.2381 119.299 78.0621C120.065 76.8768 120.447 75.1874 120.447 72.9941C120.447 70.8101 120.065 69.1254 119.299 67.9401C118.543 66.7548 117.456 66.1621 116.037 66.1621C114.619 66.1621 113.527 66.7548 112.761 67.9401C112.005 69.1254 111.627 70.8101 111.627 72.9941C111.627 75.1874 112.005 76.8768 112.761 78.0621C113.527 79.2381 114.619 79.8261 116.037 79.8261ZM127.331 85.2861L125.343 84.2921C125.913 84.0028 126.403 83.6808 126.813 83.3261C127.224 82.9714 127.495 82.5468 127.625 82.0521C127.177 81.9868 126.795 81.8141 126.477 81.5341C126.16 81.2541 126.001 80.8854 126.001 80.4281C126.001 79.9614 126.174 79.5694 126.519 79.2521C126.874 78.9254 127.322 78.7621 127.863 78.7621C128.545 78.7621 129.086 79.0048 129.487 79.4901C129.898 79.9754 130.103 80.5541 130.103 81.2261C130.103 82.0008 129.861 82.7568 129.375 83.4941C128.899 84.2408 128.218 84.8381 127.331 85.2861ZM132.694 81.9121V79.0981C132.694 78.0808 132.853 77.2268 133.17 76.5361C133.488 75.8361 133.95 75.2528 134.556 74.7861C135.163 74.3194 135.9 73.9181 136.768 73.5821L140.352 72.1821C141.211 71.8368 141.85 71.3981 142.27 70.8661C142.69 70.3341 142.9 69.6761 142.9 68.8921C142.9 68.0801 142.616 67.4081 142.046 66.8761C141.477 66.3441 140.67 66.0781 139.624 66.0781C138.607 66.0781 137.762 66.3114 137.09 66.7781C136.428 67.2354 136.05 67.9214 135.956 68.8361H133.002C133.049 67.7254 133.357 66.7921 133.926 66.0361C134.496 65.2801 135.266 64.7108 136.236 64.3281C137.207 63.9454 138.322 63.7541 139.582 63.7541C140.758 63.7541 141.813 63.9781 142.746 64.4261C143.68 64.8741 144.417 65.4948 144.958 66.2881C145.509 67.0814 145.784 67.9961 145.784 69.0321C145.784 69.9561 145.616 70.7634 145.28 71.4541C144.944 72.1354 144.45 72.7281 143.796 73.2321C143.143 73.7361 142.35 74.1748 141.416 74.5481L137.776 75.9901C136.955 76.3074 136.344 76.6808 135.942 77.1101C135.55 77.5301 135.354 78.0808 135.354 78.7621V79.4621H145.644V81.9121H132.694ZM156.041 82.2761C154.613 82.2761 153.358 81.9354 152.275 81.2541C151.202 80.5728 150.367 79.5461 149.769 78.1741C149.172 76.8021 148.873 75.0754 148.873 72.9941C148.873 70.9221 149.172 69.2001 149.769 67.8281C150.367 66.4561 151.202 65.4341 152.275 64.7621C153.358 64.0901 154.613 63.7541 156.041 63.7541C157.46 63.7541 158.706 64.0901 159.779 64.7621C160.853 65.4341 161.688 66.4561 162.285 67.8281C162.892 69.2001 163.195 70.9221 163.195 72.9941C163.195 75.0754 162.892 76.8021 162.285 78.1741C161.688 79.5461 160.853 80.5728 159.779 81.2541C158.706 81.9354 157.46 82.2761 156.041 82.2761ZM156.041 79.8261C157.46 79.8261 158.547 79.2381 159.303 78.0621C160.069 76.8768 160.451 75.1874 160.451 72.9941C160.451 70.8101 160.069 69.1254 159.303 67.9401C158.547 66.7548 157.46 66.1621 156.041 66.1621C154.623 66.1621 153.531 66.7548 152.765 67.9401C152.009 69.1254 151.631 70.8101 151.631 72.9941C151.631 75.1874 152.009 76.8768 152.765 78.0621C153.531 79.2381 154.623 79.8261 156.041 79.8261Z" fill="white"/>
<path opacity="0.54" d="M41.7663 45.4686C40.9776 45.4686 40.2963 45.2773 39.7223 44.8946C39.153 44.5073 38.712 43.9636 38.3993 43.2636C38.0866 42.559 37.9303 41.733 37.9303 40.7856C37.9303 39.787 38.096 38.9493 38.4273 38.2726C38.7586 37.5913 39.2136 37.078 39.7923 36.7326C40.3756 36.3826 41.0336 36.2076 41.7663 36.2076C42.751 36.2076 43.535 36.4526 44.1183 36.9426C44.7016 37.428 45.089 38.0603 45.2803 38.8396L43.8593 39.1126C43.6913 38.5946 43.4253 38.1816 43.0613 37.8736C42.6973 37.561 42.2656 37.4046 41.7663 37.4046C41.3276 37.4046 40.9263 37.5306 40.5623 37.7826C40.1983 38.0346 39.9066 38.4126 39.6873 38.9166C39.468 39.416 39.3583 40.039 39.3583 40.7856C39.3583 41.4763 39.4493 42.083 39.6313 42.6056C39.8133 43.1236 40.0816 43.5273 40.4363 43.8166C40.791 44.106 41.2343 44.2506 41.7663 44.2506C42.415 44.2506 42.926 44.078 43.2993 43.7326C43.6726 43.3826 43.8593 42.9276 43.8593 42.3676H45.2943C45.2943 43.021 45.1473 43.5786 44.8533 44.0406C44.564 44.498 44.1556 44.8503 43.6283 45.0976C43.101 45.345 42.4803 45.4686 41.7663 45.4686ZM51.8336 38.5316H53.1706V45.2866H51.8336V38.5316ZM47.1296 38.5316H48.4596V42.7036C48.4596 43.2123 48.5833 43.5973 48.8306 43.8586C49.0826 44.12 49.435 44.2506 49.8876 44.2506C50.2703 44.2506 50.6063 44.1503 50.8956 43.9496C51.1896 43.749 51.4183 43.4643 51.5816 43.0956C51.7496 42.727 51.8336 42.2906 51.8336 41.7866H52.2606C52.2606 42.5753 52.1533 43.238 51.9386 43.7746C51.724 44.3113 51.423 44.7196 51.0356 44.9996C50.6483 45.275 50.1956 45.4126 49.6776 45.4126C49.183 45.4126 48.742 45.3216 48.3546 45.1396C47.972 44.9576 47.671 44.6776 47.4516 44.2996C47.237 43.917 47.1296 43.4246 47.1296 42.8226V38.5316ZM55.8972 45.2866V38.5316H57.2272V45.2866H55.8972ZM56.8632 42.2766C56.8632 41.4133 56.9519 40.697 57.1292 40.1276C57.3112 39.5536 57.5632 39.1266 57.8852 38.8466C58.2119 38.5666 58.5946 38.4266 59.0332 38.4266C59.1639 38.4266 59.2852 38.436 59.3972 38.4546C59.5139 38.4733 59.6282 38.499 59.7402 38.5316L59.6912 39.8546C59.5652 39.822 59.4276 39.794 59.2782 39.7706C59.1336 39.7426 59.0006 39.7286 58.8792 39.7286C58.4966 39.7286 58.1839 39.8313 57.9412 40.0366C57.6986 40.2373 57.5189 40.529 57.4022 40.9116C57.2856 41.2896 57.2272 41.7446 57.2272 42.2766H56.8632ZM61.1336 45.2866V38.5316H62.4636V45.2866H61.1336ZM62.0996 42.2766C62.0996 41.4133 62.1882 40.697 62.3656 40.1276C62.5476 39.5536 62.7996 39.1266 63.1216 38.8466C63.4482 38.5666 63.8309 38.4266 64.2696 38.4266C64.4002 38.4266 64.5216 38.436 64.6336 38.4546C64.7502 38.4733 64.8646 38.499 64.9766 38.5316L64.9276 39.8546C64.8016 39.822 64.6639 39.794 64.5146 39.7706C64.3699 39.7426 64.2369 39.7286 64.1156 39.7286C63.7329 39.7286 63.4202 39.8313 63.1776 40.0366C62.9349 40.2373 62.7552 40.529 62.6386 40.9116C62.5219 41.2896 62.4636 41.7446 62.4636 42.2766H62.0996ZM68.7849 45.4686C68.2062 45.4686 67.6835 45.3193 67.2169 45.0206C66.7502 44.722 66.3792 44.3066 66.1039 43.7746C65.8332 43.2426 65.6979 42.6266 65.6979 41.9266C65.6979 41.1846 65.8332 40.55 66.1039 40.0226C66.3745 39.4906 66.7432 39.0823 67.2099 38.7976C67.6765 38.513 68.2015 38.3706 68.7849 38.3706C69.3075 38.3706 69.7555 38.478 70.1289 38.6926C70.5022 38.9026 70.8032 39.1873 71.0319 39.5466C71.2605 39.9013 71.4169 40.305 71.5009 40.7576C71.5895 41.2103 71.6059 41.677 71.5499 42.1576H66.7619V41.3876H70.6399L70.3179 41.5976C70.3319 41.3456 70.3179 41.0936 70.2759 40.8416C70.2385 40.5896 70.1639 40.3586 70.0519 40.1486C69.9399 39.934 69.7812 39.7636 69.5759 39.6376C69.3752 39.507 69.1185 39.4416 68.8059 39.4416C68.4139 39.4416 68.0849 39.5396 67.8189 39.7356C67.5575 39.9316 67.3592 40.1953 67.2239 40.5266C67.0885 40.8533 67.0209 41.2126 67.0209 41.6046V42.1436C67.0209 42.5776 67.0862 42.9626 67.2169 43.2986C67.3475 43.6346 67.5412 43.9006 67.7979 44.0966C68.0592 44.288 68.3882 44.3836 68.7849 44.3836C69.1722 44.3836 69.4919 44.2926 69.7439 44.1106C70.0005 43.9286 70.1592 43.6556 70.2199 43.2916H71.5779C71.5079 43.7303 71.3469 44.113 71.0949 44.4396C70.8429 44.7663 70.5185 45.0206 70.1219 45.2026C69.7299 45.38 69.2842 45.4686 68.7849 45.4686ZM78.375 45.2866V41.3386C78.375 40.7553 78.235 40.3143 77.955 40.0156C77.6797 39.7123 77.3063 39.5606 76.835 39.5606C76.4617 39.5606 76.135 39.6633 75.855 39.8686C75.5797 40.0693 75.365 40.3656 75.211 40.7576C75.0617 41.145 74.987 41.6186 74.987 42.1786H74.511C74.511 41.3526 74.616 40.6573 74.826 40.0926C75.0407 39.528 75.3463 39.101 75.743 38.8116C76.1397 38.5176 76.6157 38.3706 77.171 38.3706C77.7123 38.3706 78.1697 38.492 78.543 38.7346C78.921 38.9773 79.208 39.3226 79.404 39.7706C79.6 40.214 79.698 40.7366 79.698 41.3386V45.2866H78.375ZM73.657 45.2866V38.5526H74.812L74.987 40.0086V45.2866H73.657ZM84.3923 45.4686C84.0096 45.4686 83.6643 45.3963 83.3563 45.2516C83.0483 45.107 82.8033 44.89 82.6213 44.6006C82.4439 44.3066 82.3553 43.938 82.3553 43.4946V36.7186H83.6783V43.4526C83.6783 44.0873 83.9746 44.4046 84.5673 44.4046C84.7493 44.4046 84.9266 44.386 85.0993 44.3486C85.2719 44.3066 85.4679 44.246 85.6873 44.1666L85.8763 45.1116C85.6289 45.2143 85.3839 45.2983 85.1413 45.3636C84.9033 45.4336 84.6536 45.4686 84.3923 45.4686ZM81.3263 39.4556V38.5526H85.6733V39.4556H81.3263ZM91.0203 45.2866V36.3686H94.4713C95.1386 36.3686 95.6916 36.476 96.1303 36.6906C96.5736 36.9053 96.9049 37.19 97.1243 37.5446C97.3436 37.8993 97.4533 38.289 97.4533 38.7136C97.4533 39.2223 97.3109 39.661 97.0263 40.0296C96.7463 40.3983 96.3356 40.6526 95.7943 40.7926C96.1489 40.8533 96.4616 40.9816 96.7323 41.1776C97.0029 41.369 97.2153 41.607 97.3693 41.8916C97.5279 42.1763 97.6073 42.4913 97.6073 42.8366C97.6073 43.1306 97.5559 43.4223 97.4533 43.7116C97.3506 44.001 97.1803 44.2646 96.9423 44.5026C96.7043 44.7406 96.3846 44.932 95.9833 45.0766C95.5819 45.2166 95.0803 45.2866 94.4783 45.2866H91.0203ZM92.3503 44.1246H94.4503C95.0569 44.1246 95.4956 43.9986 95.7663 43.7466C96.0416 43.4946 96.1793 43.168 96.1793 42.7666C96.1793 42.3606 96.0346 42.034 95.7453 41.7866C95.4559 41.5393 95.0243 41.4156 94.4503 41.4156H92.3503V44.1246ZM92.3503 37.5166V40.2606H94.4223C94.9403 40.2606 95.3463 40.137 95.6403 39.8896C95.9389 39.6423 96.0883 39.2993 96.0883 38.8606C96.0883 38.4453 95.9436 38.1186 95.6543 37.8806C95.3696 37.638 94.9636 37.5166 94.4363 37.5166H92.3503ZM104.101 45.2866L103.933 43.7396V40.9326C103.933 40.382 103.818 39.983 103.59 39.7356C103.361 39.4836 102.999 39.3576 102.505 39.3576C102.225 39.3576 101.975 39.3996 101.756 39.4836C101.541 39.563 101.371 39.6843 101.245 39.8476C101.123 40.011 101.063 40.2163 101.063 40.4636H99.5926C99.5926 39.969 99.714 39.5676 99.9566 39.2596C100.199 38.9516 100.538 38.7276 100.972 38.5876C101.41 38.443 101.921 38.3706 102.505 38.3706C103.051 38.3706 103.531 38.4616 103.947 38.6436C104.362 38.821 104.684 39.101 104.913 39.4836C105.146 39.8663 105.263 40.361 105.263 40.9676V45.2866H104.101ZM101.847 45.4686C101.282 45.4686 100.813 45.3706 100.44 45.1746C100.066 44.974 99.7863 44.7126 99.5996 44.3906C99.4176 44.0686 99.3266 43.7256 99.3266 43.3616C99.3266 42.9183 99.4386 42.5543 99.6626 42.2696C99.8913 41.9803 100.206 41.7656 100.608 41.6256C101.009 41.4856 101.471 41.4156 101.994 41.4156C102.353 41.4156 102.703 41.4483 103.044 41.5136C103.384 41.579 103.72 41.6653 104.052 41.7726V42.5776C103.781 42.4796 103.48 42.4026 103.149 42.3466C102.822 42.286 102.516 42.2556 102.232 42.2556C101.807 42.2556 101.452 42.3396 101.168 42.5076C100.883 42.6756 100.741 42.9603 100.741 43.3616C100.741 43.6556 100.853 43.91 101.077 44.1246C101.301 44.3346 101.655 44.4396 102.141 44.4396C102.495 44.4396 102.808 44.3603 103.079 44.2016C103.349 44.0383 103.559 43.8353 103.709 43.5926C103.858 43.35 103.933 43.1073 103.933 42.8646H104.255C104.255 43.3313 104.159 43.763 103.968 44.1596C103.781 44.5516 103.508 44.869 103.149 45.1116C102.789 45.3496 102.355 45.4686 101.847 45.4686ZM107.796 45.2866V35.7176H109.126V45.2866H107.796ZM116.077 45.2866L115.909 43.7396V40.9326C115.909 40.382 115.795 39.983 115.566 39.7356C115.338 39.4836 114.976 39.3576 114.481 39.3576C114.201 39.3576 113.952 39.3996 113.732 39.4836C113.518 39.563 113.347 39.6843 113.221 39.8476C113.1 40.011 113.039 40.2163 113.039 40.4636H111.569C111.569 39.969 111.691 39.5676 111.933 39.2596C112.176 38.9516 112.514 38.7276 112.948 38.5876C113.387 38.443 113.898 38.3706 114.481 38.3706C115.027 38.3706 115.508 38.4616 115.923 38.6436C116.339 38.821 116.661 39.101 116.889 39.4836C117.123 39.8663 117.239 40.361 117.239 40.9676V45.2866H116.077ZM113.823 45.4686C113.259 45.4686 112.79 45.3706 112.416 45.1746C112.043 44.974 111.763 44.7126 111.576 44.3906C111.394 44.0686 111.303 43.7256 111.303 43.3616C111.303 42.9183 111.415 42.5543 111.639 42.2696C111.868 41.9803 112.183 41.7656 112.584 41.6256C112.986 41.4856 113.448 41.4156 113.97 41.4156C114.33 41.4156 114.68 41.4483 115.02 41.5136C115.361 41.579 115.697 41.6653 116.028 41.7726V42.5776C115.758 42.4796 115.457 42.4026 115.125 42.3466C114.799 42.286 114.493 42.2556 114.208 42.2556C113.784 42.2556 113.429 42.3396 113.144 42.5076C112.86 42.6756 112.717 42.9603 112.717 43.3616C112.717 43.6556 112.829 43.91 113.053 44.1246C113.277 44.3346 113.632 44.4396 114.117 44.4396C114.472 44.4396 114.785 44.3603 115.055 44.2016C115.326 44.0383 115.536 43.8353 115.685 43.5926C115.835 43.35 115.909 43.1073 115.909 42.8646H116.231C116.231 43.3313 116.136 43.763 115.944 44.1596C115.758 44.5516 115.485 44.869 115.125 45.1116C114.766 45.3496 114.332 45.4686 113.823 45.4686ZM124.49 45.2866V41.3386C124.49 40.7553 124.35 40.3143 124.07 40.0156C123.795 39.7123 123.422 39.5606 122.95 39.5606C122.577 39.5606 122.25 39.6633 121.97 39.8686C121.695 40.0693 121.48 40.3656 121.326 40.7576C121.177 41.145 121.102 41.6186 121.102 42.1786H120.626C120.626 41.3526 120.731 40.6573 120.941 40.0926C121.156 39.528 121.462 39.101 121.858 38.8116C122.255 38.5176 122.731 38.3706 123.286 38.3706C123.828 38.3706 124.285 38.492 124.658 38.7346C125.036 38.9773 125.323 39.3226 125.519 39.7706C125.715 40.214 125.813 40.7366 125.813 41.3386V45.2866H124.49ZM119.772 45.2866V38.5526H120.927L121.102 40.0086V45.2866H119.772ZM130.794 45.4686C130.244 45.4686 129.73 45.3216 129.254 45.0276C128.778 44.7336 128.396 44.3206 128.106 43.7886C127.817 43.2566 127.672 42.6313 127.672 41.9126C127.672 41.1566 127.817 40.5173 128.106 39.9946C128.396 39.4673 128.778 39.066 129.254 38.7906C129.73 38.5106 130.244 38.3706 130.794 38.3706C131.2 38.3706 131.562 38.436 131.879 38.5666C132.197 38.6926 132.47 38.8653 132.698 39.0846C132.927 39.2993 133.111 39.542 133.251 39.8126C133.396 40.0833 133.496 40.3633 133.552 40.6526L132.201 40.7226C132.103 40.3726 131.931 40.0926 131.683 39.8826C131.441 39.668 131.14 39.5606 130.78 39.5606C130.477 39.5606 130.19 39.647 129.919 39.8196C129.653 39.9876 129.436 40.2466 129.268 40.5966C129.105 40.942 129.023 41.3806 129.023 41.9126C129.023 42.4073 129.1 42.8296 129.254 43.1796C129.408 43.5296 129.618 43.798 129.884 43.9846C130.15 44.1713 130.449 44.2646 130.78 44.2646C131.256 44.2646 131.611 44.1503 131.844 43.9216C132.082 43.6883 132.201 43.3686 132.201 42.9626H133.552C133.552 43.434 133.443 43.8586 133.223 44.2366C133.004 44.6146 132.687 44.9156 132.271 45.1396C131.861 45.359 131.368 45.4686 130.794 45.4686ZM138.06 45.4686C137.482 45.4686 136.959 45.3193 136.492 45.0206C136.026 44.722 135.655 44.3066 135.379 43.7746C135.109 43.2426 134.973 42.6266 134.973 41.9266C134.973 41.1846 135.109 40.55 135.379 40.0226C135.65 39.4906 136.019 39.0823 136.485 38.7976C136.952 38.513 137.477 38.3706 138.06 38.3706C138.583 38.3706 139.031 38.478 139.404 38.6926C139.778 38.9026 140.079 39.1873 140.307 39.5466C140.536 39.9013 140.692 40.305 140.776 40.7576C140.865 41.2103 140.881 41.677 140.825 42.1576H136.037V41.3876H139.915L139.593 41.5976C139.607 41.3456 139.593 41.0936 139.551 40.8416C139.514 40.5896 139.439 40.3586 139.327 40.1486C139.215 39.934 139.057 39.7636 138.851 39.6376C138.651 39.507 138.394 39.4416 138.081 39.4416C137.689 39.4416 137.36 39.5396 137.094 39.7356C136.833 39.9316 136.635 40.1953 136.499 40.5266C136.364 40.8533 136.296 41.2126 136.296 41.6046V42.1436C136.296 42.5776 136.362 42.9626 136.492 43.2986C136.623 43.6346 136.817 43.9006 137.073 44.0966C137.335 44.288 137.664 44.3836 138.06 44.3836C138.448 44.3836 138.767 44.2926 139.019 44.1106C139.276 43.9286 139.435 43.6556 139.495 43.2916H140.853C140.783 43.7303 140.622 44.113 140.37 44.4396C140.118 44.7663 139.794 45.0206 139.397 45.2026C139.005 45.38 138.56 45.4686 138.06 45.4686Z" fill="white"/>
<defs>
<linearGradient id="paint0_linear_14_132" x1="196.848" y1="-32.6904" x2="203.087" y2="222.457" gradientUnits="userSpaceOnUse">
<stop stop-color="#9C2CF3"/>
<stop offset="1" stop-color="#3A6FF9"/>
</linearGradient>
</defs>
</svg>
