<svg width="540" height="259" viewBox="0 0 540 259" fill="none" xmlns="http://www.w3.org/2000/svg">
<line x1="27.5596" y1="65.5" x2="533.971" y2="65.5" stroke="#8C89B4" stroke-opacity="0.5" stroke-dasharray="4 4"/>
<line x1="27.5596" y1="9.5" x2="533.971" y2="9.5" stroke="#8C89B4" stroke-opacity="0.5" stroke-dasharray="4 4"/>
<line x1="27.5596" y1="120.5" x2="533.971" y2="120.5" stroke="#8C89B4" stroke-opacity="0.5" stroke-dasharray="4 4"/>
<line x1="27.5596" y1="177.5" x2="533.971" y2="177.5" stroke="#8C89B4" stroke-opacity="0.5" stroke-dasharray="4 4"/>
<line x1="27.5596" y1="233.5" x2="533.971" y2="233.5" stroke="#8C89B4" stroke-opacity="0.5" stroke-dasharray="4 4"/>
<path d="M3.384 11.144C2.908 11.144 2.474 11.058 2.082 10.886C1.69 10.714 1.376 10.462 1.14 10.13C0.904 9.794 0.784 9.384 0.78 8.9H1.716C1.716 9.356 1.876 9.7 2.196 9.932C2.52 10.164 2.916 10.28 3.384 10.28C3.924 10.28 4.348 10.116 4.656 9.788C4.968 9.456 5.124 9.048 5.124 8.564C5.124 7.596 4.5 7.112 3.252 7.112H1.236L1.56 3.464H5.736V4.316H2.316L2.508 3.992L2.256 6.62L2.136 6.512C2.328 6.468 2.546 6.438 2.79 6.422C3.034 6.402 3.252 6.392 3.444 6.392C4.26 6.392 4.906 6.574 5.382 6.938C5.858 7.302 6.096 7.844 6.096 8.564C6.096 9.052 5.986 9.492 5.766 9.884C5.546 10.272 5.232 10.58 4.824 10.808C4.42 11.032 3.94 11.144 3.384 11.144ZM10.3374 11.144C9.74544 11.144 9.22744 11 8.78344 10.712C8.34344 10.424 7.99944 9.99 7.75144 9.41C7.50744 8.83 7.38544 8.104 7.38544 7.232C7.38544 6.36 7.50744 5.636 7.75144 5.06C7.99944 4.48 8.34344 4.048 8.78344 3.764C9.22744 3.476 9.74544 3.332 10.3374 3.332C10.9254 3.332 11.4414 3.476 11.8854 3.764C12.3294 4.048 12.6734 4.48 12.9174 5.06C13.1654 5.636 13.2894 6.36 13.2894 7.232C13.2894 8.104 13.1654 8.83 12.9174 9.41C12.6734 9.99 12.3294 10.424 11.8854 10.712C11.4414 11 10.9254 11.144 10.3374 11.144ZM10.3374 10.28C10.9854 10.28 11.4774 10.016 11.8134 9.488C12.1494 8.956 12.3174 8.204 12.3174 7.232C12.3174 6.26 12.1494 5.51 11.8134 4.982C11.4774 4.45 10.9854 4.184 10.3374 4.184C9.69744 4.184 9.20744 4.45 8.86744 4.982C8.52744 5.51 8.35744 6.26 8.35744 7.232C8.35744 8.204 8.52744 8.956 8.86744 9.488C9.20744 10.016 9.69744 10.28 10.3374 10.28ZM19.4424 3.464H20.7384L15.9264 8.42V7.1L19.4424 3.464ZM17.2824 6.644L20.9424 11H19.7184L16.6104 7.256L17.2824 6.644ZM15.1104 3.464H16.0584V11H15.1104V3.464Z" fill="#8C89B4"/>
<path d="M4.26 59.356H5.136V64.372H6.444V65.164H5.136V67H4.212V65.164H0.312V64.444L4.26 59.356ZM4.248 60.832L1.428 64.444H4.248V60.832ZM10.2671 67.144C9.67513 67.144 9.15713 67 8.71313 66.712C8.27313 66.424 7.92913 65.99 7.68113 65.41C7.43713 64.83 7.31513 64.104 7.31513 63.232C7.31513 62.36 7.43713 61.636 7.68113 61.06C7.92913 60.48 8.27313 60.048 8.71313 59.764C9.15713 59.476 9.67513 59.332 10.2671 59.332C10.8551 59.332 11.3711 59.476 11.8151 59.764C12.2591 60.048 12.6031 60.48 12.8471 61.06C13.0951 61.636 13.2191 62.36 13.2191 63.232C13.2191 64.104 13.0951 64.83 12.8471 65.41C12.6031 65.99 12.2591 66.424 11.8151 66.712C11.3711 67 10.8551 67.144 10.2671 67.144ZM10.2671 66.28C10.9151 66.28 11.4071 66.016 11.7431 65.488C12.0791 64.956 12.2471 64.204 12.2471 63.232C12.2471 62.26 12.0791 61.51 11.7431 60.982C11.4071 60.45 10.9151 60.184 10.2671 60.184C9.62713 60.184 9.13713 60.45 8.79713 60.982C8.45713 61.51 8.28712 62.26 8.28712 63.232C8.28712 64.204 8.45713 64.956 8.79713 65.488C9.13713 66.016 9.62713 66.28 10.2671 66.28ZM19.3721 59.464H20.6681L15.8561 64.42V63.1L19.3721 59.464ZM17.2121 62.644L20.8721 67H19.6481L16.5401 63.256L17.2121 62.644ZM15.0401 59.464H15.9881V67H15.0401V59.464Z" fill="#8C89B4"/>
<path d="M3.564 123.144C3.188 123.144 2.824 123.092 2.472 122.988C2.124 122.88 1.81 122.724 1.53 122.52C1.254 122.312 1.036 122.056 0.876 121.752C0.716 121.448 0.636 121.096 0.636 120.696H1.596C1.604 121.04 1.696 121.33 1.872 121.566C2.048 121.802 2.282 121.98 2.574 122.1C2.87 122.22 3.2 122.28 3.564 122.28C4.124 122.28 4.558 122.144 4.866 121.872C5.174 121.6 5.328 121.26 5.328 120.852C5.328 120.592 5.264 120.362 5.136 120.162C5.008 119.962 4.804 119.806 4.524 119.694C4.248 119.578 3.884 119.52 3.432 119.52H2.58V118.776H3.156C3.74 118.776 4.2 118.66 4.536 118.428C4.872 118.196 5.04 117.876 5.04 117.468C5.04 117.108 4.904 116.804 4.632 116.556C4.36 116.308 3.972 116.184 3.468 116.184C3.08 116.184 2.734 116.264 2.43 116.424C2.126 116.58 1.92 116.868 1.812 117.288H0.852C0.916 116.82 1.068 116.442 1.308 116.154C1.548 115.866 1.852 115.658 2.22 115.53C2.588 115.398 2.996 115.332 3.444 115.332C3.944 115.332 4.39 115.42 4.782 115.596C5.174 115.772 5.482 116.014 5.706 116.322C5.934 116.63 6.048 116.984 6.048 117.384C6.048 117.78 5.934 118.12 5.706 118.404C5.482 118.684 5.156 118.9 4.728 119.052C5.204 119.188 5.592 119.412 5.892 119.724C6.196 120.036 6.348 120.436 6.348 120.924C6.348 121.356 6.234 121.74 6.006 122.076C5.782 122.408 5.462 122.67 5.046 122.862C4.63 123.05 4.136 123.144 3.564 123.144ZM10.6538 123.144C10.0618 123.144 9.54384 123 9.09984 122.712C8.65984 122.424 8.31584 121.99 8.06784 121.41C7.82384 120.83 7.70184 120.104 7.70184 119.232C7.70184 118.36 7.82384 117.636 8.06784 117.06C8.31584 116.48 8.65984 116.048 9.09984 115.764C9.54384 115.476 10.0618 115.332 10.6538 115.332C11.2418 115.332 11.7578 115.476 12.2018 115.764C12.6458 116.048 12.9898 116.48 13.2338 117.06C13.4818 117.636 13.6058 118.36 13.6058 119.232C13.6058 120.104 13.4818 120.83 13.2338 121.41C12.9898 121.99 12.6458 122.424 12.2018 122.712C11.7578 123 11.2418 123.144 10.6538 123.144ZM10.6538 122.28C11.3018 122.28 11.7938 122.016 12.1298 121.488C12.4658 120.956 12.6338 120.204 12.6338 119.232C12.6338 118.26 12.4658 117.51 12.1298 116.982C11.7938 116.45 11.3018 116.184 10.6538 116.184C10.0138 116.184 9.52384 116.45 9.18384 116.982C8.84384 117.51 8.67384 118.26 8.67384 119.232C8.67384 120.204 8.84384 120.956 9.18384 121.488C9.52384 122.016 10.0138 122.28 10.6538 122.28ZM19.7588 115.464H21.0548L16.2428 120.42V119.1L19.7588 115.464ZM17.5988 118.644L21.2588 123H20.0348L16.9268 119.256L17.5988 118.644ZM15.4268 115.464H16.3748V123H15.4268V115.464Z" fill="#8C89B4"/>
<path d="M0.768 180V178.884C0.768 178.448 0.838 178.084 0.978 177.792C1.122 177.5 1.322 177.258 1.578 177.066C1.838 176.874 2.144 176.708 2.496 176.568L3.984 175.98C4.368 175.824 4.656 175.624 4.848 175.38C5.04 175.136 5.136 174.832 5.136 174.468C5.136 174.084 5.002 173.77 4.734 173.526C4.47 173.282 4.1 173.16 3.624 173.16C3.152 173.16 2.764 173.262 2.46 173.466C2.16 173.666 1.988 173.968 1.944 174.372H0.9C0.928 173.936 1.056 173.566 1.284 173.262C1.516 172.958 1.83 172.728 2.226 172.572C2.622 172.412 3.084 172.332 3.612 172.332C4.096 172.332 4.53 172.426 4.914 172.614C5.298 172.802 5.6 173.062 5.82 173.394C6.044 173.722 6.156 174.1 6.156 174.528C6.156 174.916 6.084 175.254 5.94 175.542C5.796 175.83 5.59 176.078 5.322 176.286C5.058 176.494 4.744 176.672 4.38 176.82L2.856 177.432C2.472 177.58 2.184 177.758 1.992 177.966C1.8 178.174 1.704 178.444 1.704 178.776V179.136H6.084V180H0.768ZM10.5132 180.144C9.92122 180.144 9.40322 180 8.95922 179.712C8.51922 179.424 8.17522 178.99 7.92722 178.41C7.68322 177.83 7.56122 177.104 7.56122 176.232C7.56122 175.36 7.68322 174.636 7.92722 174.06C8.17522 173.48 8.51922 173.048 8.95922 172.764C9.40322 172.476 9.92122 172.332 10.5132 172.332C11.1012 172.332 11.6172 172.476 12.0612 172.764C12.5052 173.048 12.8492 173.48 13.0932 174.06C13.3412 174.636 13.4652 175.36 13.4652 176.232C13.4652 177.104 13.3412 177.83 13.0932 178.41C12.8492 178.99 12.5052 179.424 12.0612 179.712C11.6172 180 11.1012 180.144 10.5132 180.144ZM10.5132 179.28C11.1612 179.28 11.6532 179.016 11.9892 178.488C12.3252 177.956 12.4932 177.204 12.4932 176.232C12.4932 175.26 12.3252 174.51 11.9892 173.982C11.6532 173.45 11.1612 173.184 10.5132 173.184C9.87322 173.184 9.38322 173.45 9.04322 173.982C8.70322 174.51 8.53322 175.26 8.53322 176.232C8.53322 177.204 8.70322 177.956 9.04322 178.488C9.38322 179.016 9.87322 179.28 10.5132 179.28ZM19.6182 172.464H20.9142L16.1022 177.42V176.1L19.6182 172.464ZM17.4582 175.644L21.1182 180H19.8942L16.7862 176.256L17.4582 175.644ZM15.2862 172.464H16.2342V180H15.2862V172.464Z" fill="#8C89B4"/>
<path d="M1.992 228.44H2.748V236H1.812V229.544C1.62 229.676 1.418 229.778 1.206 229.85C0.998 229.918 0.788 229.956 0.576 229.964V229.052C0.828 229.016 1.072 228.95 1.308 228.854C1.548 228.758 1.776 228.62 1.992 228.44ZM7.52494 236.144C6.93294 236.144 6.41494 236 5.97094 235.712C5.53094 235.424 5.18694 234.99 4.93894 234.41C4.69494 233.83 4.57294 233.104 4.57294 232.232C4.57294 231.36 4.69494 230.636 4.93894 230.06C5.18694 229.48 5.53094 229.048 5.97094 228.764C6.41494 228.476 6.93294 228.332 7.52494 228.332C8.11294 228.332 8.62894 228.476 9.07294 228.764C9.51694 229.048 9.86094 229.48 10.1049 230.06C10.3529 230.636 10.4769 231.36 10.4769 232.232C10.4769 233.104 10.3529 233.83 10.1049 234.41C9.86094 234.99 9.51694 235.424 9.07294 235.712C8.62894 236 8.11294 236.144 7.52494 236.144ZM7.52494 235.28C8.17294 235.28 8.66494 235.016 9.00094 234.488C9.33694 233.956 9.50494 233.204 9.50494 232.232C9.50494 231.26 9.33694 230.51 9.00094 229.982C8.66494 229.45 8.17294 229.184 7.52494 229.184C6.88494 229.184 6.39494 229.45 6.05494 229.982C5.71494 230.51 5.54494 231.26 5.54494 232.232C5.54494 233.204 5.71494 233.956 6.05494 234.488C6.39494 235.016 6.88494 235.28 7.52494 235.28ZM16.6299 228.464H17.9259L13.1139 233.42V232.1L16.6299 228.464ZM14.4699 231.644L18.1299 236H16.9059L13.7979 232.256L14.4699 231.644ZM12.2979 228.464H13.2459V236H12.2979V228.464Z" fill="#8C89B4"/>
<path d="M56.0765 255.628V254.656C56.3605 254.84 56.6445 254.982 56.9285 255.082C57.2125 255.182 57.4885 255.232 57.7565 255.232C58.1765 255.232 58.4745 255.108 58.6505 254.86C58.8305 254.612 58.9205 254.264 58.9205 253.816V248.464H59.8565V253.816C59.8565 254.364 59.7725 254.81 59.6045 255.154C59.4405 255.494 59.2045 255.744 58.8965 255.904C58.5925 256.064 58.2325 256.144 57.8165 256.144C57.4925 256.144 57.1865 256.096 56.8985 256C56.6145 255.9 56.3405 255.776 56.0765 255.628ZM65.5843 256L65.4643 254.74V252.28C65.4643 251.764 65.3543 251.394 65.1343 251.17C64.9143 250.942 64.5843 250.828 64.1443 250.828C63.8963 250.828 63.6703 250.864 63.4663 250.936C63.2663 251.008 63.1063 251.12 62.9863 251.272C62.8703 251.42 62.8123 251.612 62.8123 251.848H61.7683C61.7683 251.432 61.8703 251.098 62.0743 250.846C62.2783 250.59 62.5583 250.406 62.9143 250.294C63.2743 250.178 63.6843 250.12 64.1443 250.12C64.5843 250.12 64.9743 250.194 65.3143 250.342C65.6543 250.49 65.9203 250.726 66.1123 251.05C66.3043 251.37 66.4003 251.788 66.4003 252.304V256H65.5843ZM63.6283 256.144C63.1563 256.144 62.7663 256.06 62.4583 255.892C62.1503 255.724 61.9203 255.506 61.7683 255.238C61.6163 254.97 61.5403 254.688 61.5403 254.392C61.5403 254.004 61.6363 253.688 61.8283 253.444C62.0243 253.2 62.2903 253.022 62.6263 252.91C62.9623 252.794 63.3403 252.736 63.7603 252.736C64.0603 252.736 64.3603 252.766 64.6603 252.826C64.9643 252.886 65.2603 252.968 65.5483 253.072V253.66C65.3083 253.564 65.0363 253.488 64.7323 253.432C64.4323 253.376 64.1563 253.348 63.9043 253.348C63.5203 253.348 63.1963 253.428 62.9323 253.588C62.6683 253.744 62.5363 254.012 62.5363 254.392C62.5363 254.672 62.6363 254.912 62.8363 255.112C63.0403 255.312 63.3643 255.412 63.8083 255.412C64.1203 255.412 64.4003 255.34 64.6483 255.196C64.9003 255.048 65.0983 254.864 65.2423 254.644C65.3903 254.424 65.4643 254.204 65.4643 253.984H65.6923C65.6923 254.368 65.6083 254.724 65.4403 255.052C65.2763 255.38 65.0403 255.644 64.7323 255.844C64.4243 256.044 64.0563 256.144 63.6283 256.144ZM72.7217 256V252.628C72.7217 252.08 72.5897 251.664 72.3257 251.38C72.0657 251.092 71.7097 250.948 71.2577 250.948C70.9137 250.948 70.6157 251.042 70.3637 251.23C70.1117 251.418 69.9177 251.688 69.7817 252.04C69.6457 252.388 69.5777 252.804 69.5777 253.288H69.2177C69.2177 252.62 69.3057 252.05 69.4817 251.578C69.6577 251.106 69.9137 250.746 70.2497 250.498C70.5897 250.246 71.0017 250.12 71.4857 250.12C71.9377 250.12 72.3237 250.222 72.6437 250.426C72.9677 250.626 73.2157 250.914 73.3877 251.29C73.5597 251.666 73.6457 252.112 73.6457 252.628V256H72.7217ZM68.6417 256V250.264H69.4457L69.5777 251.584V256H68.6417Z" fill="#8C89B4"/>
<path d="M124.369 256V248.464H128.953V249.268H125.305V251.776H128.701V252.58H125.305V256H124.369ZM132.314 256.144C131.818 256.144 131.374 256.018 130.982 255.766C130.594 255.51 130.286 255.156 130.058 254.704C129.834 254.252 129.722 253.732 129.722 253.144C129.722 252.516 129.834 251.976 130.058 251.524C130.282 251.072 130.588 250.726 130.976 250.486C131.368 250.242 131.814 250.12 132.314 250.12C132.75 250.12 133.122 250.208 133.43 250.384C133.738 250.56 133.986 250.798 134.174 251.098C134.362 251.398 134.492 251.738 134.564 252.118C134.64 252.494 134.662 252.884 134.63 253.288H130.478V252.712H134.012L133.736 252.892C133.748 252.656 133.734 252.42 133.694 252.184C133.658 251.948 133.588 251.732 133.484 251.536C133.38 251.336 133.234 251.176 133.046 251.056C132.858 250.936 132.618 250.876 132.326 250.876C131.958 250.876 131.65 250.97 131.402 251.158C131.154 251.346 130.968 251.594 130.844 251.902C130.72 252.206 130.658 252.536 130.658 252.892V253.276C130.658 253.676 130.718 254.034 130.838 254.35C130.962 254.666 131.146 254.916 131.39 255.1C131.634 255.284 131.942 255.376 132.314 255.376C132.686 255.376 132.992 255.286 133.232 255.106C133.472 254.926 133.618 254.66 133.67 254.308H134.642C134.582 254.688 134.446 255.016 134.234 255.292C134.022 255.564 133.752 255.774 133.424 255.922C133.096 256.07 132.726 256.144 132.314 256.144ZM139.114 256.144C138.73 256.144 138.382 256.044 138.07 255.844C137.762 255.644 137.516 255.352 137.332 254.968C137.152 254.58 137.062 254.108 137.062 253.552H137.422C137.422 253.924 137.498 254.242 137.65 254.506C137.806 254.766 138.006 254.964 138.25 255.1C138.494 255.236 138.75 255.304 139.018 255.304C139.326 255.304 139.608 255.216 139.864 255.04C140.12 254.864 140.324 254.612 140.476 254.284C140.632 253.956 140.71 253.564 140.71 253.108C140.71 252.66 140.634 252.276 140.482 251.956C140.33 251.632 140.124 251.384 139.864 251.212C139.608 251.036 139.322 250.948 139.006 250.948C138.734 250.948 138.476 251.016 138.232 251.152C137.992 251.284 137.796 251.48 137.644 251.74C137.496 252 137.422 252.32 137.422 252.7H137.062C137.062 252.156 137.15 251.692 137.326 251.308C137.506 250.924 137.754 250.63 138.07 250.426C138.386 250.222 138.754 250.12 139.174 250.12C139.626 250.12 140.04 250.242 140.416 250.486C140.796 250.726 141.1 251.07 141.328 251.518C141.556 251.966 141.67 252.496 141.67 253.108C141.67 253.724 141.554 254.26 141.322 254.716C141.09 255.168 140.78 255.52 140.392 255.772C140.004 256.02 139.578 256.144 139.114 256.144ZM136.486 256V247.816H137.422V254.656L137.146 256H136.486Z" fill="#8C89B4"/>
<path d="M192.407 248.464H193.751L196.343 253.672H196.247L198.839 248.464H200.147V256H199.199V249.436H199.367L196.607 255.052H195.983L193.235 249.472H193.343V256H192.407V248.464ZM206.119 256L205.999 254.74V252.28C205.999 251.764 205.889 251.394 205.669 251.17C205.449 250.942 205.119 250.828 204.679 250.828C204.431 250.828 204.205 250.864 204.001 250.936C203.801 251.008 203.641 251.12 203.521 251.272C203.405 251.42 203.347 251.612 203.347 251.848H202.303C202.303 251.432 202.405 251.098 202.609 250.846C202.813 250.59 203.093 250.406 203.449 250.294C203.809 250.178 204.219 250.12 204.679 250.12C205.119 250.12 205.509 250.194 205.849 250.342C206.189 250.49 206.455 250.726 206.647 251.05C206.839 251.37 206.935 251.788 206.935 252.304V256H206.119ZM204.163 256.144C203.691 256.144 203.301 256.06 202.993 255.892C202.685 255.724 202.455 255.506 202.303 255.238C202.151 254.97 202.075 254.688 202.075 254.392C202.075 254.004 202.171 253.688 202.363 253.444C202.559 253.2 202.825 253.022 203.161 252.91C203.497 252.794 203.875 252.736 204.295 252.736C204.595 252.736 204.895 252.766 205.195 252.826C205.499 252.886 205.795 252.968 206.083 253.072V253.66C205.843 253.564 205.571 253.488 205.267 253.432C204.967 253.376 204.691 253.348 204.439 253.348C204.055 253.348 203.731 253.428 203.467 253.588C203.203 253.744 203.071 254.012 203.071 254.392C203.071 254.672 203.171 254.912 203.371 255.112C203.575 255.312 203.899 255.412 204.343 255.412C204.655 255.412 204.935 255.34 205.183 255.196C205.435 255.048 205.633 254.864 205.777 254.644C205.925 254.424 205.999 254.204 205.999 253.984H206.227C206.227 254.368 206.143 254.724 205.975 255.052C205.811 255.38 205.575 255.644 205.267 255.844C204.959 256.044 204.591 256.144 204.163 256.144ZM209.177 256V250.252H210.113V256H209.177ZM209.825 253.408C209.825 252.68 209.895 252.076 210.035 251.596C210.175 251.112 210.379 250.752 210.647 250.516C210.919 250.276 211.249 250.156 211.637 250.156C211.765 250.156 211.881 250.166 211.985 250.186C212.093 250.202 212.201 250.228 212.309 250.264L212.249 251.188C212.137 251.152 212.015 251.122 211.883 251.098C211.751 251.07 211.633 251.056 211.529 251.056C211.189 251.056 210.915 251.154 210.707 251.35C210.499 251.542 210.347 251.814 210.251 252.166C210.159 252.518 210.113 252.932 210.113 253.408H209.825Z" fill="#8C89B4"/>
<path d="M256.1 256L258.692 248.464H259.832L262.364 256H261.38L260.744 254.068H257.744L257.084 256H256.1ZM257.984 253.336H260.504L259.244 249.604L257.984 253.336ZM266.495 256.144C266.075 256.144 265.709 256.048 265.397 255.856C265.089 255.664 264.851 255.384 264.683 255.016C264.515 254.644 264.431 254.192 264.431 253.66H264.827C264.827 254.016 264.901 254.316 265.049 254.56C265.197 254.804 265.389 254.99 265.625 255.118C265.865 255.242 266.119 255.304 266.387 255.304C266.675 255.304 266.951 255.222 267.215 255.058C267.479 254.89 267.695 254.644 267.863 254.32C268.031 253.996 268.115 253.596 268.115 253.12C268.115 252.664 268.037 252.274 267.881 251.95C267.729 251.626 267.523 251.378 267.263 251.206C267.003 251.034 266.715 250.948 266.399 250.948C266.127 250.948 265.871 251.014 265.631 251.146C265.391 251.278 265.197 251.472 265.049 251.728C264.901 251.98 264.827 252.292 264.827 252.664H264.431C264.431 252.108 264.523 251.642 264.707 251.266C264.891 250.886 265.141 250.6 265.457 250.408C265.773 250.216 266.127 250.12 266.519 250.12C266.967 250.12 267.385 250.24 267.773 250.48C268.161 250.72 268.475 251.064 268.715 251.512C268.955 251.96 269.075 252.496 269.075 253.12C269.075 253.752 268.953 254.294 268.709 254.746C268.469 255.198 268.153 255.544 267.761 255.784C267.369 256.024 266.947 256.144 266.495 256.144ZM263.891 258.82V250.264H264.671L264.827 251.608V258.82H263.891ZM271.438 248.908C271.246 248.908 271.094 248.854 270.982 248.746C270.87 248.634 270.814 248.488 270.814 248.308C270.814 248.132 270.87 247.992 270.982 247.888C271.094 247.784 271.246 247.732 271.438 247.732C271.63 247.732 271.782 247.784 271.894 247.888C272.006 247.992 272.062 248.132 272.062 248.308C272.062 248.488 272.006 248.634 271.894 248.746C271.782 248.854 271.63 248.908 271.438 248.908ZM270.97 256V250.252H271.906V256H270.97Z" fill="#8C89B4"/>
<path d="M385.932 255.628V254.656C386.216 254.84 386.5 254.982 386.784 255.082C387.068 255.182 387.344 255.232 387.612 255.232C388.032 255.232 388.33 255.108 388.506 254.86C388.686 254.612 388.776 254.264 388.776 253.816V248.464H389.712V253.816C389.712 254.364 389.628 254.81 389.46 255.154C389.296 255.494 389.06 255.744 388.752 255.904C388.448 256.064 388.088 256.144 387.672 256.144C387.348 256.144 387.042 256.096 386.754 256C386.47 255.9 386.196 255.776 385.932 255.628ZM395.788 250.252H396.724V256H395.788V250.252ZM391.72 250.252H392.656V253.828C392.656 254.308 392.772 254.672 393.004 254.92C393.24 255.168 393.576 255.292 394.012 255.292C394.372 255.292 394.684 255.196 394.948 255.004C395.216 254.812 395.422 254.548 395.566 254.212C395.714 253.872 395.788 253.484 395.788 253.048H396.136C396.136 253.692 396.042 254.242 395.854 254.698C395.67 255.154 395.408 255.504 395.068 255.748C394.732 255.988 394.336 256.108 393.88 256.108C393.448 256.108 393.07 256.028 392.746 255.868C392.422 255.708 392.17 255.466 391.99 255.142C391.81 254.814 391.72 254.4 391.72 253.9V250.252ZM403.233 256V252.628C403.233 252.08 403.101 251.664 402.837 251.38C402.577 251.092 402.221 250.948 401.769 250.948C401.425 250.948 401.127 251.042 400.875 251.23C400.623 251.418 400.429 251.688 400.293 252.04C400.157 252.388 400.089 252.804 400.089 253.288H399.729C399.729 252.62 399.817 252.05 399.993 251.578C400.169 251.106 400.425 250.746 400.761 250.498C401.101 250.246 401.513 250.12 401.997 250.12C402.449 250.12 402.835 250.222 403.155 250.426C403.479 250.626 403.727 250.914 403.899 251.29C404.071 251.666 404.157 252.112 404.157 252.628V256H403.233ZM399.153 256V250.264H399.957L400.089 251.584V256H399.153Z" fill="#8C89B4"/>
<path d="M320.733 248.464H322.077L324.669 253.672H324.573L327.165 248.464H328.473V256H327.525V249.436H327.693L324.933 255.052H324.309L321.561 249.472H321.669V256H320.733V248.464ZM334.446 256L334.326 254.74V252.28C334.326 251.764 334.216 251.394 333.996 251.17C333.776 250.942 333.446 250.828 333.006 250.828C332.758 250.828 332.532 250.864 332.328 250.936C332.128 251.008 331.968 251.12 331.848 251.272C331.732 251.42 331.674 251.612 331.674 251.848H330.63C330.63 251.432 330.732 251.098 330.936 250.846C331.14 250.59 331.42 250.406 331.776 250.294C332.136 250.178 332.546 250.12 333.006 250.12C333.446 250.12 333.836 250.194 334.176 250.342C334.516 250.49 334.782 250.726 334.974 251.05C335.166 251.37 335.262 251.788 335.262 252.304V256H334.446ZM332.49 256.144C332.018 256.144 331.628 256.06 331.32 255.892C331.012 255.724 330.782 255.506 330.63 255.238C330.478 254.97 330.402 254.688 330.402 254.392C330.402 254.004 330.498 253.688 330.69 253.444C330.886 253.2 331.152 253.022 331.488 252.91C331.824 252.794 332.202 252.736 332.622 252.736C332.922 252.736 333.222 252.766 333.522 252.826C333.826 252.886 334.122 252.968 334.41 253.072V253.66C334.17 253.564 333.898 253.488 333.594 253.432C333.294 253.376 333.018 253.348 332.766 253.348C332.382 253.348 332.058 253.428 331.794 253.588C331.53 253.744 331.398 254.012 331.398 254.392C331.398 254.672 331.498 254.912 331.698 255.112C331.902 255.312 332.226 255.412 332.67 255.412C332.982 255.412 333.262 255.34 333.51 255.196C333.762 255.048 333.96 254.864 334.104 254.644C334.252 254.424 334.326 254.204 334.326 253.984H334.554C334.554 254.368 334.47 254.724 334.302 255.052C334.138 255.38 333.902 255.644 333.594 255.844C333.286 256.044 332.918 256.144 332.49 256.144ZM336.555 250.264H337.599L339.471 255.184H339.255L340.707 250.264H341.667L339.507 257.152C339.327 257.728 339.087 258.172 338.787 258.484C338.487 258.796 338.103 258.952 337.635 258.952C337.383 258.952 337.143 258.916 336.915 258.844C336.691 258.772 336.459 258.668 336.219 258.532V257.668C336.431 257.836 336.635 257.956 336.831 258.028C337.031 258.1 337.239 258.136 337.455 258.136C337.695 258.136 337.895 258.06 338.055 257.908C338.219 257.756 338.355 257.56 338.463 257.32C338.571 257.084 338.663 256.836 338.739 256.576L338.907 256L336.555 250.264Z" fill="#8C89B4"/>
<path d="M452.247 255.628V254.656C452.531 254.84 452.815 254.982 453.099 255.082C453.383 255.182 453.659 255.232 453.927 255.232C454.347 255.232 454.645 255.108 454.821 254.86C455.001 254.612 455.091 254.264 455.091 253.816V248.464H456.027V253.816C456.027 254.364 455.943 254.81 455.775 255.154C455.611 255.494 455.375 255.744 455.067 255.904C454.763 256.064 454.403 256.144 453.987 256.144C453.663 256.144 453.357 256.096 453.069 256C452.785 255.9 452.511 255.776 452.247 255.628ZM462.103 250.252H463.039V256H462.103V250.252ZM458.035 250.252H458.971V253.828C458.971 254.308 459.087 254.672 459.319 254.92C459.555 255.168 459.891 255.292 460.327 255.292C460.687 255.292 460.999 255.196 461.263 255.004C461.531 254.812 461.737 254.548 461.881 254.212C462.029 253.872 462.103 253.484 462.103 253.048H462.451C462.451 253.692 462.357 254.242 462.169 254.698C461.985 255.154 461.723 255.504 461.383 255.748C461.047 255.988 460.651 256.108 460.195 256.108C459.763 256.108 459.385 256.028 459.061 255.868C458.737 255.708 458.485 255.466 458.305 255.142C458.125 254.814 458.035 254.4 458.035 253.9V250.252ZM465.469 256V247.816H466.405V256H465.469Z" fill="#8C89B4"/>
<path d="M514.475 256L517.067 248.464H518.207L520.739 256H519.755L519.119 254.068H516.119L515.459 256H514.475ZM516.359 253.336H518.879L517.619 249.604L516.359 253.336ZM526.166 250.252H527.102V256H526.166V250.252ZM522.098 250.252H523.034V253.828C523.034 254.308 523.15 254.672 523.382 254.92C523.618 255.168 523.954 255.292 524.39 255.292C524.75 255.292 525.062 255.196 525.326 255.004C525.594 254.812 525.8 254.548 525.944 254.212C526.092 253.872 526.166 253.484 526.166 253.048H526.514C526.514 253.692 526.42 254.242 526.232 254.698C526.048 255.154 525.786 255.504 525.446 255.748C525.11 255.988 524.714 256.108 524.258 256.108C523.826 256.108 523.448 256.028 523.124 255.868C522.8 255.708 522.548 255.466 522.368 255.142C522.188 254.814 522.098 254.4 522.098 253.9V250.252ZM531.559 258.952C530.971 258.952 530.461 258.868 530.029 258.7C529.597 258.536 529.261 258.314 529.021 258.034C528.785 257.758 528.667 257.452 528.667 257.116C528.667 256.672 528.829 256.332 529.153 256.096C529.481 255.864 529.903 255.748 530.419 255.748L530.935 256.072C530.503 256.072 530.169 256.162 529.933 256.342C529.697 256.522 529.579 256.768 529.579 257.08C529.579 257.392 529.747 257.656 530.083 257.872C530.419 258.088 530.911 258.196 531.559 258.196C532.039 258.196 532.459 258.126 532.819 257.986C533.183 257.85 533.465 257.67 533.665 257.446C533.869 257.226 533.971 256.988 533.971 256.732C533.971 256.552 533.905 256.396 533.773 256.264C533.641 256.136 533.439 256.072 533.167 256.072H530.935C530.547 256.072 530.211 256.014 529.927 255.898C529.647 255.778 529.431 255.622 529.279 255.43C529.127 255.238 529.051 255.028 529.051 254.8C529.051 254.56 529.119 254.356 529.255 254.188C529.391 254.02 529.567 253.892 529.783 253.804C530.003 253.716 530.239 253.672 530.491 253.672L530.671 254.02C530.551 254.02 530.429 254.048 530.305 254.104C530.185 254.156 530.083 254.236 529.999 254.344C529.919 254.448 529.879 254.58 529.879 254.74C529.879 254.924 529.955 255.078 530.107 255.202C530.259 255.326 530.535 255.388 530.935 255.388H533.167C533.707 255.388 534.131 255.502 534.439 255.73C534.751 255.958 534.907 256.276 534.907 256.684C534.907 257.06 534.773 257.42 534.505 257.764C534.237 258.112 533.853 258.396 533.353 258.616C532.853 258.84 532.255 258.952 531.559 258.952ZM531.727 254.32C531.287 254.32 530.889 254.232 530.533 254.056C530.181 253.88 529.901 253.634 529.693 253.318C529.489 253.002 529.387 252.636 529.387 252.22C529.387 251.8 529.489 251.432 529.693 251.116C529.901 250.8 530.181 250.556 530.533 250.384C530.889 250.208 531.287 250.12 531.727 250.12C532.155 250.12 532.543 250.208 532.891 250.384C533.243 250.556 533.523 250.8 533.731 251.116C533.939 251.432 534.043 251.8 534.043 252.22C534.043 252.636 533.939 253.002 533.731 253.318C533.523 253.634 533.243 253.88 532.891 254.056C532.543 254.232 532.155 254.32 531.727 254.32ZM531.727 253.648C532.167 253.648 532.509 253.512 532.753 253.24C532.997 252.968 533.119 252.628 533.119 252.22C533.119 251.8 532.997 251.46 532.753 251.2C532.509 250.936 532.167 250.804 531.727 250.804C531.291 250.804 530.947 250.936 530.695 251.2C530.447 251.46 530.323 251.8 530.323 252.22C530.323 252.628 530.447 252.968 530.695 253.24C530.947 253.512 531.291 253.648 531.727 253.648ZM533.611 251.032L533.167 250.852C533.167 250.516 533.233 250.222 533.365 249.97C533.497 249.714 533.685 249.516 533.929 249.376C534.173 249.232 534.463 249.16 534.799 249.16L534.727 250.084C534.367 250.084 534.091 250.162 533.899 250.318C533.707 250.47 533.611 250.708 533.611 251.032Z" fill="#8C89B4"/>
<path d="M55.9805 144.014C55.9805 142.35 57.33 141 58.9948 141C60.6596 141 62.0092 142.35 62.0092 144.014V234H55.9805V144.014Z" fill="#64CFF6"/>
<path d="M254.067 144.014C254.067 142.35 255.417 141 257.082 141C258.747 141 260.096 142.35 260.096 144.014V234H254.067V144.014Z" fill="#64CFF6"/>
<path d="M68.0391 88.0144C68.0391 86.3496 69.3886 85 71.0534 85C72.7182 85 74.0678 86.3496 74.0678 88.0144V234H68.0391V88.0144Z" fill="#6359E9"/>
<path d="M266.986 88.0144C266.986 86.3496 268.336 85 270.001 85C271.665 85 273.015 86.3496 273.015 88.0144V234H266.986V88.0144Z" fill="#6359E9"/>
<path d="M123.157 102.014C123.157 100.35 124.507 99 126.172 99C127.836 99 129.186 100.35 129.186 102.014V234H123.157V102.014Z" fill="#64CFF6"/>
<path d="M318.661 102.014C318.661 100.35 320.011 99 321.675 99C323.34 99 324.69 100.35 324.69 102.014V234H318.661V102.014Z" fill="#64CFF6"/>
<path d="M191.195 167.014C191.195 165.35 192.545 164 194.21 164C195.874 164 197.224 165.35 197.224 167.014V234H191.195V167.014Z" fill="#64CFF6"/>
<path d="M385.836 137.014C385.836 135.35 387.186 134 388.85 134C390.515 134 391.865 135.35 391.865 137.014V234H385.836V137.014Z" fill="#64CFF6"/>
<path d="M449.569 137.014C449.569 135.35 450.919 134 452.584 134C454.248 134 455.598 135.35 455.598 137.014V234H449.569V137.014Z" fill="#64CFF6"/>
<path d="M514.163 137.014C514.163 135.35 515.513 134 517.177 134C518.842 134 520.192 135.35 520.192 137.014V234H514.163V137.014Z" fill="#64CFF6"/>
<path d="M135.215 143.014C135.215 141.35 136.564 140 138.229 140C139.894 140 141.244 141.35 141.244 143.014V234H135.215V143.014Z" fill="#6359E9"/>
<path d="M330.717 62.0144C330.717 60.3496 332.066 59 333.731 59C335.396 59 336.746 60.3496 336.746 62.0144V234H330.717V62.0144Z" fill="#5A51D4"/>
<path d="M397.896 166.014C397.896 164.35 399.245 163 400.91 163C402.575 163 403.924 164.35 403.924 166.014V234H397.896V166.014Z" fill="#6359E9"/>
<path d="M526.221 166.014C526.221 164.35 527.57 163 529.235 163C530.9 163 532.249 164.35 532.249 166.014V234H526.221V166.014Z" fill="#6359E9"/>
<path d="M461.626 166.014C461.626 164.35 462.976 163 464.64 163C466.305 163 467.655 164.35 467.655 166.014V234H461.626V166.014Z" fill="#6359E9"/>
<path d="M203.253 126.014C203.253 124.35 204.603 123 206.267 123C207.932 123 209.282 124.35 209.282 126.014V234H203.253V126.014Z" fill="#6359E9"/>
<g filter="url(#filter0_d_17_242)">
<path d="M336.746 76.8947C336.746 72.5346 340.281 69 344.641 69H427.033C431.393 69 434.928 72.5346 434.928 76.8947V116.105C434.928 120.465 431.393 124 427.033 124H336.746V76.8947Z" fill="#464687"/>
</g>
<path d="M352.386 92.646V91.488C352.686 91.672 352.982 91.81 353.274 91.902C353.566 91.994 353.846 92.04 354.114 92.04C354.498 92.04 354.774 91.928 354.942 91.704C355.114 91.476 355.2 91.146 355.2 90.714V85.356H356.34V90.714C356.34 91.294 356.25 91.764 356.07 92.124C355.894 92.48 355.644 92.742 355.32 92.91C355 93.074 354.626 93.156 354.198 93.156C353.862 93.156 353.544 93.108 353.244 93.012C352.944 92.916 352.658 92.794 352.386 92.646ZM362.357 87.21H363.503V93H362.357V87.21ZM358.325 87.21H359.465V90.786C359.465 91.222 359.571 91.552 359.783 91.776C359.999 92 360.301 92.112 360.689 92.112C361.017 92.112 361.305 92.026 361.553 91.854C361.805 91.682 362.001 91.438 362.141 91.122C362.285 90.806 362.357 90.432 362.357 90H362.723C362.723 90.676 362.631 91.244 362.447 91.704C362.263 92.164 362.005 92.514 361.673 92.754C361.341 92.99 360.953 93.108 360.509 93.108C360.085 93.108 359.707 93.03 359.375 92.874C359.047 92.718 358.789 92.478 358.601 92.154C358.417 91.826 358.325 91.404 358.325 90.888V87.21ZM365.84 93V84.798H366.98V93H365.84ZM368.402 87.228H369.68L371.42 92.004H371.186L372.584 87.228H373.748L371.558 94.11C371.358 94.734 371.1 95.2 370.784 95.508C370.472 95.82 370.08 95.976 369.608 95.976C369.344 95.976 369.09 95.942 368.846 95.874C368.606 95.806 368.36 95.706 368.108 95.574V94.548C368.324 94.7 368.532 94.81 368.732 94.878C368.932 94.946 369.14 94.98 369.356 94.98C369.572 94.98 369.756 94.914 369.908 94.782C370.064 94.654 370.194 94.482 370.298 94.266C370.406 94.054 370.498 93.822 370.574 93.57L370.748 93L368.402 87.228ZM377.607 93V91.794C377.607 91.358 377.675 90.992 377.811 90.696C377.947 90.396 378.145 90.146 378.405 89.946C378.665 89.746 378.981 89.574 379.353 89.43L380.889 88.83C381.257 88.682 381.531 88.494 381.711 88.266C381.891 88.038 381.981 87.756 381.981 87.42C381.981 87.072 381.859 86.784 381.615 86.556C381.371 86.328 381.025 86.214 380.577 86.214C380.141 86.214 379.779 86.314 379.491 86.514C379.207 86.71 379.045 87.004 379.005 87.396H377.739C377.759 86.92 377.891 86.52 378.135 86.196C378.379 85.872 378.709 85.628 379.125 85.464C379.541 85.3 380.019 85.218 380.559 85.218C381.063 85.218 381.515 85.314 381.915 85.506C382.315 85.698 382.631 85.964 382.863 86.304C383.099 86.644 383.217 87.036 383.217 87.48C383.217 87.876 383.145 88.222 383.001 88.518C382.857 88.81 382.645 89.064 382.365 89.28C382.085 89.496 381.745 89.684 381.345 89.844L379.785 90.462C379.433 90.598 379.171 90.758 378.999 90.942C378.831 91.122 378.747 91.358 378.747 91.65V91.95H383.157V93H377.607ZM387.613 93.156C387.001 93.156 386.463 93.01 385.999 92.718C385.539 92.426 385.181 91.986 384.925 91.398C384.669 90.81 384.541 90.07 384.541 89.178C384.541 88.29 384.669 87.552 384.925 86.964C385.181 86.376 385.539 85.938 385.999 85.65C386.463 85.362 387.001 85.218 387.613 85.218C388.221 85.218 388.755 85.362 389.215 85.65C389.675 85.938 390.033 86.376 390.289 86.964C390.549 87.552 390.679 88.29 390.679 89.178C390.679 90.07 390.549 90.81 390.289 91.398C390.033 91.986 389.675 92.426 389.215 92.718C388.755 93.01 388.221 93.156 387.613 93.156ZM387.613 92.106C388.221 92.106 388.687 91.854 389.011 91.35C389.339 90.842 389.503 90.118 389.503 89.178C389.503 88.242 389.339 87.52 389.011 87.012C388.687 86.504 388.221 86.25 387.613 86.25C387.005 86.25 386.537 86.504 386.209 87.012C385.885 87.52 385.723 88.242 385.723 89.178C385.723 90.118 385.885 90.842 386.209 91.35C386.537 91.854 387.005 92.106 387.613 92.106ZM392.021 93V91.794C392.021 91.358 392.089 90.992 392.225 90.696C392.361 90.396 392.559 90.146 392.819 89.946C393.079 89.746 393.395 89.574 393.767 89.43L395.303 88.83C395.671 88.682 395.945 88.494 396.125 88.266C396.305 88.038 396.395 87.756 396.395 87.42C396.395 87.072 396.273 86.784 396.029 86.556C395.785 86.328 395.439 86.214 394.991 86.214C394.555 86.214 394.193 86.314 393.905 86.514C393.621 86.71 393.459 87.004 393.419 87.396H392.153C392.173 86.92 392.305 86.52 392.549 86.196C392.793 85.872 393.123 85.628 393.539 85.464C393.955 85.3 394.433 85.218 394.973 85.218C395.477 85.218 395.929 85.314 396.329 85.506C396.729 85.698 397.045 85.964 397.277 86.304C397.513 86.644 397.631 87.036 397.631 87.48C397.631 87.876 397.559 88.222 397.415 88.518C397.271 88.81 397.059 89.064 396.779 89.28C396.499 89.496 396.159 89.684 395.759 89.844L394.199 90.462C393.847 90.598 393.585 90.758 393.413 90.942C393.245 91.122 393.161 91.358 393.161 91.65V91.95H397.571V93H392.021ZM402.027 93.156C401.415 93.156 400.877 93.01 400.413 92.718C399.953 92.426 399.595 91.986 399.339 91.398C399.083 90.81 398.955 90.07 398.955 89.178C398.955 88.29 399.083 87.552 399.339 86.964C399.595 86.376 399.953 85.938 400.413 85.65C400.877 85.362 401.415 85.218 402.027 85.218C402.635 85.218 403.169 85.362 403.629 85.65C404.089 85.938 404.447 86.376 404.703 86.964C404.963 87.552 405.093 88.29 405.093 89.178C405.093 90.07 404.963 90.81 404.703 91.398C404.447 91.986 404.089 92.426 403.629 92.718C403.169 93.01 402.635 93.156 402.027 93.156ZM402.027 92.106C402.635 92.106 403.101 91.854 403.425 91.35C403.753 90.842 403.917 90.118 403.917 89.178C403.917 88.242 403.753 87.52 403.425 87.012C403.101 86.504 402.635 86.25 402.027 86.25C401.419 86.25 400.951 86.504 400.623 87.012C400.299 87.52 400.137 88.242 400.137 89.178C400.137 90.118 400.299 90.842 400.623 91.35C400.951 91.854 401.419 92.106 402.027 92.106ZM356.256 112.156C355.828 112.156 355.42 112.104 355.032 112C354.648 111.896 354.306 111.742 354.006 111.538C353.71 111.334 353.478 111.076 353.31 110.764C353.142 110.452 353.058 110.086 353.058 109.666H354.174C354.174 110.002 354.26 110.276 354.432 110.488C354.608 110.7 354.856 110.856 355.176 110.956C355.496 111.056 355.872 111.106 356.304 111.106C356.692 111.106 357.012 111.054 357.264 110.95C357.52 110.842 357.71 110.7 357.834 110.524C357.962 110.348 358.026 110.156 358.026 109.948C358.026 109.68 357.938 109.452 357.762 109.264C357.59 109.072 357.342 108.922 357.018 108.814L356.214 108.526V107.524L357.54 107.974C358.112 108.166 358.55 108.42 358.854 108.736C359.158 109.052 359.31 109.466 359.31 109.978C359.31 110.342 359.2 110.69 358.98 111.022C358.76 111.354 358.424 111.626 357.972 111.838C357.52 112.05 356.948 112.156 356.256 112.156ZM355.758 113.146V103.33H356.61V113.146H355.758ZM356.01 108.538L355.284 108.292C354.62 108.072 354.112 107.812 353.76 107.512C353.408 107.208 353.232 106.79 353.232 106.258C353.232 105.654 353.482 105.164 353.982 104.788C354.482 104.408 355.206 104.218 356.154 104.218C357.026 104.218 357.694 104.408 358.158 104.788C358.626 105.168 358.914 105.678 359.022 106.318H357.882C357.822 105.99 357.644 105.722 357.348 105.514C357.056 105.306 356.652 105.202 356.136 105.202C355.588 105.202 355.172 105.306 354.888 105.514C354.608 105.718 354.468 105.978 354.468 106.294C354.468 106.542 354.542 106.742 354.69 106.894C354.838 107.042 355.074 107.17 355.398 107.278L356.01 107.518V108.538ZM363.573 112.156C363.061 112.156 362.601 112.066 362.193 111.886C361.785 111.702 361.461 111.436 361.221 111.088C360.981 110.736 360.857 110.308 360.849 109.804H362.001C362.001 110.236 362.151 110.562 362.451 110.782C362.755 110.998 363.129 111.106 363.573 111.106C364.069 111.106 364.465 110.952 364.761 110.644C365.057 110.332 365.205 109.95 365.205 109.498C365.205 108.602 364.619 108.154 363.447 108.154H361.275L361.617 104.356H366.003V105.4H362.535L362.763 105.04L362.523 107.53L362.403 107.416C362.595 107.372 362.817 107.34 363.069 107.32C363.321 107.3 363.543 107.29 363.735 107.29C364.543 107.29 365.185 107.478 365.661 107.854C366.141 108.226 366.381 108.774 366.381 109.498C366.381 109.998 366.265 110.45 366.033 110.854C365.805 111.254 365.481 111.572 365.061 111.808C364.641 112.04 364.145 112.156 363.573 112.156ZM370.699 112.156C370.075 112.156 369.527 111.988 369.055 111.652C368.587 111.316 368.223 110.86 367.963 110.284C367.703 109.704 367.573 109.046 367.573 108.31C367.573 107.446 367.705 106.71 367.969 106.102C368.233 105.49 368.607 105.024 369.091 104.704C369.575 104.38 370.147 104.218 370.807 104.218C371.283 104.218 371.703 104.308 372.067 104.488C372.431 104.664 372.721 104.912 372.937 105.232C373.153 105.552 373.277 105.926 373.309 106.354H372.079C372.027 106.014 371.901 105.746 371.701 105.55C371.501 105.35 371.213 105.25 370.837 105.25C370.181 105.25 369.663 105.536 369.283 106.108C368.907 106.68 368.719 107.46 368.719 108.448C368.719 108.584 368.721 108.738 368.725 108.91C368.733 109.082 368.749 109.242 368.773 109.39C368.821 108.874 368.951 108.47 369.163 108.178C369.375 107.882 369.637 107.672 369.949 107.548C370.265 107.424 370.597 107.362 370.945 107.362C371.413 107.362 371.829 107.464 372.193 107.668C372.561 107.872 372.849 108.156 373.057 108.52C373.269 108.88 373.375 109.294 373.375 109.762C373.375 110.238 373.263 110.656 373.039 111.016C372.815 111.376 372.501 111.656 372.097 111.856C371.693 112.056 371.227 112.156 370.699 112.156ZM370.699 111.106C371.123 111.106 371.477 110.982 371.761 110.734C372.045 110.482 372.187 110.146 372.187 109.726C372.187 109.29 372.045 108.95 371.761 108.706C371.477 108.458 371.123 108.334 370.699 108.334C370.419 108.334 370.167 108.394 369.943 108.514C369.723 108.63 369.547 108.794 369.415 109.006C369.287 109.214 369.223 109.454 369.223 109.726C369.223 110.146 369.365 110.482 369.649 110.734C369.933 110.982 370.283 111.106 370.699 111.106ZM374.351 111.328C374.351 111.104 374.427 110.914 374.579 110.758C374.735 110.602 374.931 110.524 375.167 110.524C375.403 110.524 375.603 110.602 375.767 110.758C375.931 110.914 376.013 111.104 376.013 111.328C376.013 111.548 375.931 111.734 375.767 111.886C375.603 112.034 375.403 112.108 375.167 112.108C374.931 112.108 374.735 112.032 374.579 111.88C374.427 111.728 374.351 111.544 374.351 111.328ZM380.608 104.26H381.694V109.24H383.02V110.212H381.694V112H380.566V110.212H376.648V109.342L380.608 104.26ZM380.614 106L377.998 109.342H380.614V106ZM386.706 112.156C386.194 112.156 385.734 112.066 385.326 111.886C384.918 111.702 384.594 111.436 384.354 111.088C384.114 110.736 383.99 110.308 383.982 109.804H385.134C385.134 110.236 385.284 110.562 385.584 110.782C385.888 110.998 386.262 111.106 386.706 111.106C387.202 111.106 387.598 110.952 387.894 110.644C388.19 110.332 388.338 109.95 388.338 109.498C388.338 108.602 387.752 108.154 386.58 108.154H384.408L384.75 104.356H389.136V105.4H385.668L385.896 105.04L385.656 107.53L385.536 107.416C385.728 107.372 385.95 107.34 386.202 107.32C386.454 107.3 386.676 107.29 386.868 107.29C387.676 107.29 388.318 107.478 388.794 107.854C389.274 108.226 389.514 108.774 389.514 109.498C389.514 109.998 389.398 110.45 389.166 110.854C388.938 111.254 388.614 111.572 388.194 111.808C387.774 112.04 387.278 112.156 386.706 112.156ZM393.831 112.156C393.207 112.156 392.659 111.988 392.187 111.652C391.719 111.316 391.355 110.86 391.095 110.284C390.835 109.704 390.705 109.046 390.705 108.31C390.705 107.446 390.837 106.71 391.101 106.102C391.365 105.49 391.739 105.024 392.223 104.704C392.707 104.38 393.279 104.218 393.939 104.218C394.415 104.218 394.835 104.308 395.199 104.488C395.563 104.664 395.853 104.912 396.069 105.232C396.285 105.552 396.409 105.926 396.441 106.354H395.211C395.159 106.014 395.033 105.746 394.833 105.55C394.633 105.35 394.345 105.25 393.969 105.25C393.313 105.25 392.795 105.536 392.415 106.108C392.039 106.68 391.851 107.46 391.851 108.448C391.851 108.584 391.853 108.738 391.857 108.91C391.865 109.082 391.881 109.242 391.905 109.39C391.953 108.874 392.083 108.47 392.295 108.178C392.507 107.882 392.769 107.672 393.081 107.548C393.397 107.424 393.729 107.362 394.077 107.362C394.545 107.362 394.961 107.464 395.325 107.668C395.693 107.872 395.981 108.156 396.189 108.52C396.401 108.88 396.507 109.294 396.507 109.762C396.507 110.238 396.395 110.656 396.171 111.016C395.947 111.376 395.633 111.656 395.229 111.856C394.825 112.056 394.359 112.156 393.831 112.156ZM393.831 111.106C394.255 111.106 394.609 110.982 394.893 110.734C395.177 110.482 395.319 110.146 395.319 109.726C395.319 109.29 395.177 108.95 394.893 108.706C394.609 108.458 394.255 108.334 393.831 108.334C393.551 108.334 393.299 108.394 393.075 108.514C392.855 108.63 392.679 108.794 392.547 109.006C392.419 109.214 392.355 109.454 392.355 109.726C392.355 110.146 392.497 110.482 392.781 110.734C393.065 110.982 393.415 111.106 393.831 111.106ZM397.484 111.328C397.484 111.104 397.56 110.914 397.712 110.758C397.868 110.602 398.064 110.524 398.3 110.524C398.536 110.524 398.736 110.602 398.9 110.758C399.064 110.914 399.146 111.104 399.146 111.328C399.146 111.548 399.064 111.734 398.9 111.886C398.736 112.034 398.536 112.108 398.3 112.108C398.064 112.108 397.868 112.032 397.712 111.88C397.56 111.728 397.484 111.544 397.484 111.328ZM402.96 112.156C402.448 112.156 401.99 112.054 401.586 111.85C401.182 111.642 400.862 111.356 400.626 110.992C400.39 110.628 400.272 110.21 400.272 109.738H401.46C401.476 110.154 401.616 110.486 401.88 110.734C402.144 110.982 402.492 111.106 402.924 111.106C403.384 111.106 403.754 110.976 404.034 110.716C404.318 110.452 404.526 110.08 404.658 109.6C404.79 109.12 404.856 108.558 404.856 107.914C404.856 107.774 404.852 107.642 404.844 107.518C404.836 107.39 404.822 107.252 404.802 107.104C404.738 107.54 404.604 107.898 404.4 108.178C404.2 108.454 403.948 108.66 403.644 108.796C403.34 108.928 403.002 108.994 402.63 108.994C402.166 108.994 401.752 108.892 401.388 108.688C401.024 108.484 400.736 108.202 400.524 107.842C400.316 107.478 400.212 107.062 400.212 106.594C400.212 106.114 400.324 105.696 400.548 105.34C400.772 104.984 401.084 104.708 401.484 104.512C401.884 104.316 402.348 104.218 402.876 104.218C403.32 104.218 403.732 104.308 404.112 104.488C404.496 104.668 404.828 104.926 405.108 105.262C405.392 105.598 405.612 106 405.768 106.468C405.928 106.936 406.008 107.46 406.008 108.04C406.008 108.88 405.896 109.608 405.672 110.224C405.452 110.84 405.116 111.316 404.664 111.652C404.216 111.988 403.648 112.156 402.96 112.156ZM402.882 108.022C403.154 108.022 403.402 107.962 403.626 107.842C403.854 107.722 404.034 107.56 404.166 107.356C404.298 107.148 404.364 106.912 404.364 106.648C404.364 106.216 404.218 105.876 403.926 105.628C403.638 105.38 403.288 105.256 402.876 105.256C402.456 105.256 402.104 105.38 401.82 105.628C401.536 105.876 401.394 106.216 401.394 106.648C401.394 107.076 401.536 107.412 401.82 107.656C402.104 107.9 402.458 108.022 402.882 108.022Z" fill="white"/>
<defs>
<filter id="filter0_d_17_242" x="297.272" y="56.3684" width="177.129" height="133.947" filterUnits="userSpaceOnUse" color-interpolation-filters="sRGB">
<feFlood flood-opacity="0" result="BackgroundImageFix"/>
<feColorMatrix in="SourceAlpha" type="matrix" values="0 0 0 0 0 0 0 0 0 0 0 0 0 0 0 0 0 0 127 0" result="hardAlpha"/>
<feOffset dy="26.8421"/>
<feGaussianBlur stdDeviation="19.7368"/>
<feComposite in2="hardAlpha" operator="out"/>
<feColorMatrix type="matrix" values="0 0 0 0 0 0 0 0 0 0 0 0 0 0 0 0 0 0 0.17 0"/>
<feBlend mode="normal" in2="BackgroundImageFix" result="effect1_dropShadow_17_242"/>
<feBlend mode="normal" in="SourceGraphic" in2="effect1_dropShadow_17_242" result="shape"/>
</filter>
</defs>
</svg>
