<svg width="391" height="198" viewBox="0 0 391 198" fill="none" xmlns="http://www.w3.org/2000/svg">
<rect y="0.0693359" width="391" height="197.598" rx="20" fill="url(#paint0_linear_5_596)"/>
<mask id="mask0_5_596" style="mask-type:alpha" maskUnits="userSpaceOnUse" x="0" y="0" width="391" height="198">
<rect x="3.05176e-05" y="0.0693359" width="391" height="197.598" rx="20" fill="#ED713C"/>
</mask>
<g mask="url(#mask0_5_596)">
<ellipse opacity="0.1" cx="30.4122" cy="228.811" rx="199.224" ry="121.351" fill="black"/>
<ellipse opacity="0.08" cx="360.588" cy="-31.0738" rx="199.224" ry="121.351" fill="black"/>
</g>
<path d="M318.283 30.1108H333.386V53.5891H318.283V30.1108Z" fill="#FF5F00"/>
<path d="M308.071 65.4065V62.9178C308.071 61.9635 307.4 61.3415 306.249 61.3415C305.674 61.3415 305.051 61.5074 304.619 62.0467C304.283 61.5903 303.804 61.3415 303.085 61.3415C302.605 61.3415 302.126 61.4658 301.742 61.9221V61.4244H300.735V65.4065H301.742V63.208C301.742 62.503 302.174 62.171 302.845 62.171C303.516 62.171 303.852 62.5444 303.852 63.208V65.4065H304.859V63.208C304.859 62.503 305.338 62.171 305.962 62.171C306.633 62.171 306.968 62.5444 306.968 63.208V65.4065H308.071V65.4065ZM322.982 61.4244H321.352V60.2215H320.345V61.4244H319.434V62.2124H320.345V64.0377C320.345 64.9504 320.777 65.4895 321.927 65.4895C322.359 65.4895 322.838 65.3652 323.174 65.1992L322.886 64.4525C322.599 64.6184 322.263 64.66 322.023 64.66C321.544 64.66 321.352 64.4111 321.352 63.9961V62.2124H322.982V61.4244V61.4244ZM331.517 61.3413C330.941 61.3413 330.558 61.5903 330.318 61.9221V61.4244H329.311V65.4065H330.318V63.1666C330.318 62.503 330.653 62.1296 331.277 62.1296C331.469 62.1296 331.708 62.1712 331.9 62.2126L332.188 61.3831C331.996 61.3415 331.708 61.3415 331.517 61.3415V61.3413ZM318.619 61.7562C318.14 61.4658 317.468 61.3415 316.749 61.3415C315.599 61.3415 314.832 61.8392 314.832 62.6273C314.832 63.2911 315.407 63.6643 316.414 63.7889L316.893 63.8304C317.421 63.9132 317.708 64.0377 317.708 64.2452C317.708 64.5354 317.325 64.7429 316.653 64.7429C315.982 64.7429 315.455 64.5354 315.119 64.3281L314.64 64.9918C315.167 65.3236 315.886 65.4895 316.605 65.4895C317.948 65.4895 318.715 64.9504 318.715 64.2036C318.715 63.4984 318.092 63.1251 317.133 63.0007L316.653 62.9591C316.222 62.9176 315.886 62.8348 315.886 62.586C315.886 62.2955 316.222 62.1296 316.749 62.1296C317.325 62.1296 317.9 62.3369 318.188 62.4614L318.619 61.7562V61.7562ZM345.373 61.3415C344.798 61.3415 344.414 61.5903 344.174 61.9221V61.4244H343.167V65.4065H344.174V63.1666C344.174 62.503 344.51 62.1296 345.133 62.1296C345.325 62.1296 345.565 62.1712 345.757 62.2126L346.044 61.3831C345.852 61.3415 345.565 61.3415 345.373 61.3415V61.3415ZM332.523 63.4155C332.523 64.6184 333.482 65.4895 334.969 65.4895C335.64 65.4895 336.119 65.3651 336.599 65.0333L336.119 64.3281C335.736 64.577 335.352 64.7013 334.921 64.7013C334.106 64.7013 333.53 64.2036 333.53 63.4155C333.53 62.6689 334.106 62.171 334.921 62.1296C335.352 62.1296 335.736 62.254 336.119 62.503L336.599 61.7978C336.119 61.4658 335.64 61.3415 334.969 61.3415C333.482 61.3415 332.523 62.2126 332.523 63.4155ZM341.825 63.4155V61.4244H340.818V61.9221C340.482 61.549 340.003 61.3415 339.38 61.3415C338.085 61.3415 337.078 62.2126 337.078 63.4155C337.078 64.6184 338.085 65.4895 339.38 65.4895C340.051 65.4895 340.531 65.2822 340.818 64.9088V65.4065H341.825V63.4155V63.4155ZM338.133 63.4155C338.133 62.7103 338.661 62.1296 339.523 62.1296C340.339 62.1296 340.914 62.6689 340.914 63.4155C340.914 64.1207 340.339 64.7013 339.523 64.7013C338.661 64.6598 338.133 64.1207 338.133 63.4155V63.4155ZM326.099 61.3415C324.756 61.3415 323.797 62.171 323.797 63.4155C323.797 64.66 324.756 65.4895 326.147 65.4895C326.818 65.4895 327.489 65.3236 328.017 64.9504L327.537 64.3281C327.154 64.577 326.674 64.7429 326.195 64.7429C325.571 64.7429 324.948 64.4941 324.804 63.7887H328.208V63.4571C328.256 62.171 327.393 61.3415 326.099 61.3415H326.099ZM326.099 62.0881C326.722 62.0881 327.154 62.42 327.249 63.0423H324.852C324.948 62.503 325.38 62.0881 326.099 62.0881ZM351.078 63.4155V59.8481H350.072V61.9221C349.736 61.549 349.257 61.3415 348.633 61.3415C347.339 61.3415 346.332 62.2126 346.332 63.4155C346.332 64.6184 347.339 65.4895 348.633 65.4895C349.305 65.4895 349.784 65.2822 350.072 64.9088V65.4065H351.078V63.4155V63.4155ZM347.387 63.4155C347.387 62.7103 347.914 62.1296 348.777 62.1296C349.592 62.1296 350.167 62.6689 350.167 63.4155C350.167 64.1207 349.592 64.7013 348.777 64.7013C347.914 64.6598 347.387 64.1207 347.387 63.4155V63.4155ZM313.729 63.4155V61.4244H312.722V61.9221C312.386 61.549 311.907 61.3415 311.283 61.3415C309.989 61.3415 308.982 62.2126 308.982 63.4155C308.982 64.6184 309.989 65.4895 311.283 65.4895C311.955 65.4895 312.434 65.2822 312.722 64.9088V65.4065H313.729V63.4155V63.4155ZM309.989 63.4155C309.989 62.7103 310.516 62.1296 311.379 62.1296C312.194 62.1296 312.77 62.6689 312.77 63.4155C312.77 64.1207 312.194 64.7013 311.379 64.7013C310.516 64.6598 309.989 64.1207 309.989 63.4155V63.4155Z" fill="white"/>
<path d="M319.242 41.8502C319.242 37.0799 321.831 32.8488 325.81 30.1109C322.886 28.1199 319.194 26.917 315.166 26.917C305.625 26.917 297.906 33.5953 297.906 41.8502C297.906 50.1048 305.625 56.7833 315.166 56.7833C319.194 56.7833 322.885 55.5804 325.81 53.5892C321.831 50.8929 319.242 46.6204 319.242 41.8502V41.8502Z" fill="#EB001B"/>
<path d="M353.762 41.8502C353.762 50.1048 346.043 56.7833 336.502 56.7833C332.475 56.7833 328.783 55.5804 325.858 53.5892C329.886 50.8515 332.427 46.6204 332.427 41.8502C332.427 37.0799 329.838 32.8488 325.858 30.1109C328.783 28.1199 332.475 26.917 336.502 26.917C346.043 26.917 353.763 33.6369 353.763 41.8502H353.762Z" fill="#F79E1B"/>
<path opacity="0.54" d="M41.7661 45.4686C40.9775 45.4686 40.2961 45.2773 39.7221 44.8946C39.1528 44.5073 38.7118 43.9636 38.3991 43.2636C38.0865 42.559 37.9301 41.733 37.9301 40.7856C37.9301 39.787 38.0958 38.9493 38.4271 38.2726C38.7585 37.5913 39.2135 37.078 39.7921 36.7326C40.3755 36.3826 41.0335 36.2076 41.7661 36.2076C42.7508 36.2076 43.5348 36.4526 44.1181 36.9426C44.7015 37.428 45.0888 38.0603 45.2801 38.8396L43.8591 39.1126C43.6911 38.5946 43.4251 38.1816 43.0611 37.8736C42.6971 37.561 42.2655 37.4046 41.7661 37.4046C41.3275 37.4046 40.9261 37.5306 40.5621 37.7826C40.1981 38.0346 39.9065 38.4126 39.6871 38.9166C39.4678 39.416 39.3581 40.039 39.3581 40.7856C39.3581 41.4763 39.4491 42.083 39.6311 42.6056C39.8131 43.1236 40.0815 43.5273 40.4361 43.8166C40.7908 44.106 41.2341 44.2506 41.7661 44.2506C42.4148 44.2506 42.9258 44.078 43.2991 43.7326C43.6725 43.3826 43.8591 42.9276 43.8591 42.3676H45.2941C45.2941 43.021 45.1471 43.5786 44.8531 44.0406C44.5638 44.498 44.1555 44.8503 43.6281 45.0976C43.1008 45.345 42.4801 45.4686 41.7661 45.4686ZM51.8334 38.5316H53.1704V45.2866H51.8334V38.5316ZM47.1294 38.5316H48.4594V42.7036C48.4594 43.2123 48.5831 43.5973 48.8304 43.8586C49.0824 44.12 49.4348 44.2506 49.8874 44.2506C50.2701 44.2506 50.6061 44.1503 50.8954 43.9496C51.1894 43.749 51.4181 43.4643 51.5814 43.0956C51.7494 42.727 51.8334 42.2906 51.8334 41.7866H52.2604C52.2604 42.5753 52.1531 43.238 51.9384 43.7746C51.7238 44.3113 51.4228 44.7196 51.0354 44.9996C50.6481 45.275 50.1954 45.4126 49.6774 45.4126C49.1828 45.4126 48.7418 45.3216 48.3544 45.1396C47.9718 44.9576 47.6708 44.6776 47.4514 44.2996C47.2368 43.917 47.1294 43.4246 47.1294 42.8226V38.5316ZM55.8971 45.2866V38.5316H57.2271V45.2866H55.8971ZM56.8631 42.2766C56.8631 41.4133 56.9517 40.697 57.1291 40.1276C57.3111 39.5536 57.5631 39.1266 57.8851 38.8466C58.2117 38.5666 58.5944 38.4266 59.0331 38.4266C59.1637 38.4266 59.2851 38.436 59.3971 38.4546C59.5137 38.4733 59.6281 38.499 59.7401 38.5316L59.6911 39.8546C59.5651 39.822 59.4274 39.794 59.2781 39.7706C59.1334 39.7426 59.0004 39.7286 58.8791 39.7286C58.4964 39.7286 58.1837 39.8313 57.9411 40.0366C57.6984 40.2373 57.5187 40.529 57.4021 40.9116C57.2854 41.2896 57.2271 41.7446 57.2271 42.2766H56.8631ZM61.1334 45.2866V38.5316H62.4634V45.2866H61.1334ZM62.0994 42.2766C62.0994 41.4133 62.1881 40.697 62.3654 40.1276C62.5474 39.5536 62.7994 39.1266 63.1214 38.8466C63.4481 38.5666 63.8307 38.4266 64.2694 38.4266C64.4001 38.4266 64.5214 38.436 64.6334 38.4546C64.7501 38.4733 64.8644 38.499 64.9764 38.5316L64.9274 39.8546C64.8014 39.822 64.6637 39.794 64.5144 39.7706C64.3697 39.7426 64.2367 39.7286 64.1154 39.7286C63.7327 39.7286 63.4201 39.8313 63.1774 40.0366C62.9347 40.2373 62.7551 40.529 62.6384 40.9116C62.5217 41.2896 62.4634 41.7446 62.4634 42.2766H62.0994ZM68.7847 45.4686C68.206 45.4686 67.6834 45.3193 67.2167 45.0206C66.75 44.722 66.379 44.3066 66.1037 43.7746C65.833 43.2426 65.6977 42.6266 65.6977 41.9266C65.6977 41.1846 65.833 40.55 66.1037 40.0226C66.3744 39.4906 66.743 39.0823 67.2097 38.7976C67.6764 38.513 68.2014 38.3706 68.7847 38.3706C69.3074 38.3706 69.7554 38.478 70.1287 38.6926C70.502 38.9026 70.803 39.1873 71.0317 39.5466C71.2604 39.9013 71.4167 40.305 71.5007 40.7576C71.5894 41.2103 71.6057 41.677 71.5497 42.1576H66.7617V41.3876H70.6397L70.3177 41.5976C70.3317 41.3456 70.3177 41.0936 70.2757 40.8416C70.2384 40.5896 70.1637 40.3586 70.0517 40.1486C69.9397 39.934 69.781 39.7636 69.5757 39.6376C69.375 39.507 69.1184 39.4416 68.8057 39.4416C68.4137 39.4416 68.0847 39.5396 67.8187 39.7356C67.5574 39.9316 67.359 40.1953 67.2237 40.5266C67.0884 40.8533 67.0207 41.2126 67.0207 41.6046V42.1436C67.0207 42.5776 67.086 42.9626 67.2167 43.2986C67.3474 43.6346 67.541 43.9006 67.7977 44.0966C68.059 44.288 68.388 44.3836 68.7847 44.3836C69.172 44.3836 69.4917 44.2926 69.7437 44.1106C70.0004 43.9286 70.159 43.6556 70.2197 43.2916H71.5777C71.5077 43.7303 71.3467 44.113 71.0947 44.4396C70.8427 44.7663 70.5184 45.0206 70.1217 45.2026C69.7297 45.38 69.284 45.4686 68.7847 45.4686ZM78.3748 45.2866V41.3386C78.3748 40.7553 78.2348 40.3143 77.9548 40.0156C77.6795 39.7123 77.3062 39.5606 76.8348 39.5606C76.4615 39.5606 76.1348 39.6633 75.8548 39.8686C75.5795 40.0693 75.3648 40.3656 75.2108 40.7576C75.0615 41.145 74.9868 41.6186 74.9868 42.1786H74.5108C74.5108 41.3526 74.6158 40.6573 74.8258 40.0926C75.0405 39.528 75.3462 39.101 75.7428 38.8116C76.1395 38.5176 76.6155 38.3706 77.1708 38.3706C77.7122 38.3706 78.1695 38.492 78.5428 38.7346C78.9208 38.9773 79.2078 39.3226 79.4038 39.7706C79.5998 40.214 79.6978 40.7366 79.6978 41.3386V45.2866H78.3748ZM73.6568 45.2866V38.5526H74.8118L74.9868 40.0086V45.2866H73.6568ZM84.3921 45.4686C84.0094 45.4686 83.6641 45.3963 83.3561 45.2516C83.0481 45.107 82.8031 44.89 82.6211 44.6006C82.4438 44.3066 82.3551 43.938 82.3551 43.4946V36.7186H83.6781V43.4526C83.6781 44.0873 83.9744 44.4046 84.5671 44.4046C84.7491 44.4046 84.9264 44.386 85.0991 44.3486C85.2718 44.3066 85.4678 44.246 85.6871 44.1666L85.8761 45.1116C85.6288 45.2143 85.3838 45.2983 85.1411 45.3636C84.9031 45.4336 84.6534 45.4686 84.3921 45.4686ZM81.3261 39.4556V38.5526H85.6731V39.4556H81.3261ZM91.0201 45.2866V36.3686H94.4711C95.1384 36.3686 95.6914 36.476 96.1301 36.6906C96.5734 36.9053 96.9048 37.19 97.1241 37.5446C97.3434 37.8993 97.4531 38.289 97.4531 38.7136C97.4531 39.2223 97.3108 39.661 97.0261 40.0296C96.7461 40.3983 96.3354 40.6526 95.7941 40.7926C96.1488 40.8533 96.4614 40.9816 96.7321 41.1776C97.0028 41.369 97.2151 41.607 97.3691 41.8916C97.5278 42.1763 97.6071 42.4913 97.6071 42.8366C97.6071 43.1306 97.5558 43.4223 97.4531 43.7116C97.3504 44.001 97.1801 44.2646 96.9421 44.5026C96.7041 44.7406 96.3844 44.932 95.9831 45.0766C95.5818 45.2166 95.0801 45.2866 94.4781 45.2866H91.0201ZM92.3501 44.1246H94.4501C95.0568 44.1246 95.4954 43.9986 95.7661 43.7466C96.0414 43.4946 96.1791 43.168 96.1791 42.7666C96.1791 42.3606 96.0344 42.034 95.7451 41.7866C95.4558 41.5393 95.0241 41.4156 94.4501 41.4156H92.3501V44.1246ZM92.3501 37.5166V40.2606H94.4221C94.9401 40.2606 95.3461 40.137 95.6401 39.8896C95.9388 39.6423 96.0881 39.2993 96.0881 38.8606C96.0881 38.4453 95.9434 38.1186 95.6541 37.8806C95.3694 37.638 94.9634 37.5166 94.4361 37.5166H92.3501ZM104.1 45.2866L103.932 43.7396V40.9326C103.932 40.382 103.818 39.983 103.589 39.7356C103.361 39.4836 102.999 39.3576 102.504 39.3576C102.224 39.3576 101.975 39.3996 101.755 39.4836C101.541 39.563 101.37 39.6843 101.244 39.8476C101.123 40.011 101.062 40.2163 101.062 40.4636H99.5925C99.5925 39.969 99.7138 39.5676 99.9565 39.2596C100.199 38.9516 100.537 38.7276 100.971 38.5876C101.41 38.443 101.921 38.3706 102.504 38.3706C103.05 38.3706 103.531 38.4616 103.946 38.6436C104.362 38.821 104.684 39.101 104.912 39.4836C105.146 39.8663 105.262 40.361 105.262 40.9676V45.2866H104.1ZM101.846 45.4686C101.282 45.4686 100.813 45.3706 100.439 45.1746C100.066 44.974 99.7861 44.7126 99.5995 44.3906C99.4175 44.0686 99.3265 43.7256 99.3265 43.3616C99.3265 42.9183 99.4385 42.5543 99.6625 42.2696C99.8911 41.9803 100.206 41.7656 100.607 41.6256C101.009 41.4856 101.471 41.4156 101.993 41.4156C102.353 41.4156 102.703 41.4483 103.043 41.5136C103.384 41.579 103.72 41.6653 104.051 41.7726V42.5776C103.781 42.4796 103.48 42.4026 103.148 42.3466C102.822 42.286 102.516 42.2556 102.231 42.2556C101.807 42.2556 101.452 42.3396 101.167 42.5076C100.883 42.6756 100.74 42.9603 100.74 43.3616C100.74 43.6556 100.852 43.91 101.076 44.1246C101.3 44.3346 101.655 44.4396 102.14 44.4396C102.495 44.4396 102.808 44.3603 103.078 44.2016C103.349 44.0383 103.559 43.8353 103.708 43.5926C103.858 43.35 103.932 43.1073 103.932 42.8646H104.254C104.254 43.3313 104.159 43.763 103.967 44.1596C103.781 44.5516 103.508 44.869 103.148 45.1116C102.789 45.3496 102.355 45.4686 101.846 45.4686ZM107.795 45.2866V35.7176H109.125V45.2866H107.795ZM116.077 45.2866L115.909 43.7396V40.9326C115.909 40.382 115.795 39.983 115.566 39.7356C115.337 39.4836 114.976 39.3576 114.481 39.3576C114.201 39.3576 113.951 39.3996 113.732 39.4836C113.517 39.563 113.347 39.6843 113.221 39.8476C113.1 40.011 113.039 40.2163 113.039 40.4636H111.569C111.569 39.969 111.69 39.5676 111.933 39.2596C112.176 38.9516 112.514 38.7276 112.948 38.5876C113.387 38.443 113.898 38.3706 114.481 38.3706C115.027 38.3706 115.508 38.4616 115.923 38.6436C116.338 38.821 116.66 39.101 116.889 39.4836C117.122 39.8663 117.239 40.361 117.239 40.9676V45.2866H116.077ZM113.823 45.4686C113.258 45.4686 112.789 45.3706 112.416 45.1746C112.043 44.974 111.763 44.7126 111.576 44.3906C111.394 44.0686 111.303 43.7256 111.303 43.3616C111.303 42.9183 111.415 42.5543 111.639 42.2696C111.868 41.9803 112.183 41.7656 112.584 41.6256C112.985 41.4856 113.447 41.4156 113.97 41.4156C114.329 41.4156 114.679 41.4483 115.02 41.5136C115.361 41.579 115.697 41.6653 116.028 41.7726V42.5776C115.757 42.4796 115.456 42.4026 115.125 42.3466C114.798 42.286 114.493 42.2556 114.208 42.2556C113.783 42.2556 113.429 42.3396 113.144 42.5076C112.859 42.6756 112.717 42.9603 112.717 43.3616C112.717 43.6556 112.829 43.91 113.053 44.1246C113.277 44.3346 113.632 44.4396 114.117 44.4396C114.472 44.4396 114.784 44.3603 115.055 44.2016C115.326 44.0383 115.536 43.8353 115.685 43.5926C115.834 43.35 115.909 43.1073 115.909 42.8646H116.231C116.231 43.3313 116.135 43.763 115.944 44.1596C115.757 44.5516 115.484 44.869 115.125 45.1116C114.766 45.3496 114.332 45.4686 113.823 45.4686ZM124.49 45.2866V41.3386C124.49 40.7553 124.35 40.3143 124.07 40.0156C123.795 39.7123 123.421 39.5606 122.95 39.5606C122.577 39.5606 122.25 39.6633 121.97 39.8686C121.695 40.0693 121.48 40.3656 121.326 40.7576C121.177 41.145 121.102 41.6186 121.102 42.1786H120.626C120.626 41.3526 120.731 40.6573 120.941 40.0926C121.156 39.528 121.461 39.101 121.858 38.8116C122.255 38.5176 122.731 38.3706 123.286 38.3706C123.827 38.3706 124.285 38.492 124.658 38.7346C125.036 38.9773 125.323 39.3226 125.519 39.7706C125.715 40.214 125.813 40.7366 125.813 41.3386V45.2866H124.49ZM119.772 45.2866V38.5526H120.927L121.102 40.0086V45.2866H119.772ZM130.794 45.4686C130.244 45.4686 129.73 45.3216 129.254 45.0276C128.778 44.7336 128.396 44.3206 128.106 43.7886C127.817 43.2566 127.672 42.6313 127.672 41.9126C127.672 41.1566 127.817 40.5173 128.106 39.9946C128.396 39.4673 128.778 39.066 129.254 38.7906C129.73 38.5106 130.244 38.3706 130.794 38.3706C131.2 38.3706 131.562 38.436 131.879 38.5666C132.197 38.6926 132.47 38.8653 132.698 39.0846C132.927 39.2993 133.111 39.542 133.251 39.8126C133.396 40.0833 133.496 40.3633 133.552 40.6526L132.201 40.7226C132.103 40.3726 131.931 40.0926 131.683 39.8826C131.441 39.668 131.14 39.5606 130.78 39.5606C130.477 39.5606 130.19 39.647 129.919 39.8196C129.653 39.9876 129.436 40.2466 129.268 40.5966C129.105 40.942 129.023 41.3806 129.023 41.9126C129.023 42.4073 129.1 42.8296 129.254 43.1796C129.408 43.5296 129.618 43.798 129.884 43.9846C130.15 44.1713 130.449 44.2646 130.78 44.2646C131.256 44.2646 131.611 44.1503 131.844 43.9216C132.082 43.6883 132.201 43.3686 132.201 42.9626H133.552C133.552 43.434 133.443 43.8586 133.223 44.2366C133.004 44.6146 132.687 44.9156 132.271 45.1396C131.861 45.359 131.368 45.4686 130.794 45.4686ZM138.06 45.4686C137.481 45.4686 136.959 45.3193 136.492 45.0206C136.025 44.722 135.654 44.3066 135.379 43.7746C135.108 43.2426 134.973 42.6266 134.973 41.9266C134.973 41.1846 135.108 40.55 135.379 40.0226C135.65 39.4906 136.018 39.0823 136.485 38.7976C136.952 38.513 137.477 38.3706 138.06 38.3706C138.583 38.3706 139.031 38.478 139.404 38.6926C139.777 38.9026 140.078 39.1873 140.307 39.5466C140.536 39.9013 140.692 40.305 140.776 40.7576C140.865 41.2103 140.881 41.677 140.825 42.1576H136.037V41.3876H139.915L139.593 41.5976C139.607 41.3456 139.593 41.0936 139.551 40.8416C139.514 40.5896 139.439 40.3586 139.327 40.1486C139.215 39.934 139.056 39.7636 138.851 39.6376C138.65 39.507 138.394 39.4416 138.081 39.4416C137.689 39.4416 137.36 39.5396 137.094 39.7356C136.833 39.9316 136.634 40.1953 136.499 40.5266C136.364 40.8533 136.296 41.2126 136.296 41.6046V42.1436C136.296 42.5776 136.361 42.9626 136.492 43.2986C136.623 43.6346 136.816 43.9006 137.073 44.0966C137.334 44.288 137.663 44.3836 138.06 44.3836C138.447 44.3836 138.767 44.2926 139.019 44.1106C139.276 43.9286 139.434 43.6556 139.495 43.2916H140.853C140.783 43.7303 140.622 44.113 140.37 44.4396C140.118 44.7663 139.794 45.0206 139.397 45.2026C139.005 45.38 138.559 45.4686 138.06 45.4686Z" fill="white"/>
<defs>
<linearGradient id="paint0_linear_5_596" x1="196.848" y1="-32.6904" x2="203.087" y2="222.457" gradientUnits="userSpaceOnUse">
<stop stop-color="#9C2CF3"/>
<stop offset="1" stop-color="#3A6FF9"/>
</linearGradient>
</defs>
</svg>
