<svg width="32" height="32" viewBox="0 0 32 32" fill="none" xmlns="http://www.w3.org/2000/svg">
<g id="trending-topic 1" clip-path="url(#clip0_14_194)">
<path id="Subtract" fill-rule="evenodd" clip-rule="evenodd" d="M23.3076 9.69258C23.5915 9.6459 23.8816 9.7372 24.0883 9.93813C26.4922 12.2756 27.8161 15.404 27.8161 18.7471C27.8161 25.5263 22.3011 31.0417 15.5222 31.0417C9.91467 31.0417 5.02293 27.2452 3.62635 21.8095C3.36171 20.7782 3.22754 19.7479 3.22754 18.7471C3.22754 16.7824 3.6865 14.8938 4.59168 13.1338C5.48249 11.4035 6.79237 9.88841 8.37986 8.75181C8.38908 8.7452 8.39848 8.73877 8.40793 8.73247C8.46645 8.69388 8.52895 8.64816 8.59513 8.59972L8.60188 8.59478C8.60863 8.58985 8.61537 8.58492 8.62211 8.57998C8.64854 8.56064 8.675 8.54127 8.70162 8.52209C11.2258 6.71585 12.8111 3.91578 13.0535 0.838043C13.0774 0.534295 13.2518 0.26274 13.5181 0.114625C13.7845 -0.0334295 14.107 -0.0383404 14.3777 0.101529C17.487 1.70861 19.7697 4.57275 20.6402 7.95952C20.905 8.99063 21.0391 10.0209 21.0391 11.022C21.0391 11.5438 21.0051 12.0642 20.9375 12.5815C21.6156 11.8654 22.1919 11.0553 22.6457 10.1738C22.7776 9.91763 23.0232 9.73908 23.3076 9.69258ZM15.0519 22.5757C17.1299 22.5757 18.8145 20.8911 18.8145 18.813C18.8145 16.735 17.1299 15.0504 15.0519 15.0504C12.9738 15.0504 11.2892 16.735 11.2892 18.813C11.2892 20.8911 12.9738 22.5757 15.0519 22.5757Z" fill="#CBC8FF"/>
</g>
<defs>
<clipPath id="clip0_14_194">
<rect width="31.0417" height="31.0417" fill="white"/>
</clipPath>
</defs>
</svg>
