<svg width="313" height="200" viewBox="0 0 313 200" fill="none" xmlns="http://www.w3.org/2000/svg">
<path d="M275.482 100C279.304 100 282.431 96.896 282.119 93.0868C280.148 69.0909 267.967 46.4068 247.666 29.2893C225.424 10.5357 195.258 2.00233e-06 163.804 0C132.35 -2.00233e-06 102.184 10.5357 79.9424 29.2893C59.6414 46.4068 47.4603 69.0909 45.4893 93.0868C45.1764 96.896 48.3042 100 52.1262 100L78.2771 100C82.0991 100 85.1538 96.8898 85.6247 93.0968C87.4923 78.0554 95.4218 63.9251 108.221 53.1332C122.962 40.7033 142.956 33.7203 163.804 33.7203C184.652 33.7203 204.646 40.7033 219.387 53.1332C232.186 63.9251 240.116 78.0554 241.983 93.0969C242.454 96.8898 245.509 100 249.331 100H275.482Z" fill="#3A3A5A"/>
<path d="M195.554 11.4404C196.931 7.59931 194.705 3.39174 190.701 2.60558C175.251 -0.427795 159.21 -0.82196 143.53 1.47205C125.321 4.13586 108.103 10.3507 93.2488 19.6207C78.3944 28.8908 66.3148 40.9596 57.9736 54.8644C50.8703 66.7056 46.6455 79.5992 45.5146 92.7887C45.1878 96.5995 48.3089 99.7151 52.1337 99.7245L78.6161 99.7898C82.4354 99.7993 85.4965 96.701 85.9818 92.9126C86.9927 85.0206 89.6866 77.3275 93.9559 70.2105C99.4611 61.0333 107.434 53.0679 117.238 46.9497C127.041 40.8314 138.405 36.7297 150.423 34.9715C160.35 33.5193 170.495 33.6994 180.305 35.4832C183.816 36.1217 187.374 34.2577 188.578 30.8984L195.554 11.4404Z" fill="#6359E9"/>
<path d="M267.918 68.1778C271.859 66.9732 273.897 62.5995 271.956 58.9637C263.452 43.0278 250.117 29.206 233.231 18.9252C215.788 8.30602 195.286 1.90883 173.935 0.365507C170.149 0.0917937 166.988 3.09534 166.863 6.88971L166.201 27.0427C166.075 30.8883 169.115 34.0719 172.944 34.4514C186.149 35.7605 198.783 39.8897 209.626 46.4906C220.427 53.0665 229.026 61.8372 234.655 71.9456C236.373 75.0293 239.949 76.7265 243.324 75.6948L267.918 68.1778Z" fill="#64CFF6"/>
<path d="M145.852 76.0526L150.785 67.1667H145.52V65.2733H153.093V67.1501L148.493 76.0526H145.852ZM158.31 76.2851C157.535 76.2851 156.851 76.1522 156.259 75.8865C155.666 75.6152 155.198 75.2221 154.855 74.7072C154.517 74.1923 154.34 73.5667 154.324 72.8304H156.317C156.317 73.384 156.508 73.7993 156.89 74.0761C157.272 74.3529 157.745 74.4913 158.31 74.4913C158.913 74.4913 159.406 74.2975 159.788 73.91C160.176 73.5169 160.369 73.0352 160.369 72.465C160.369 71.3577 159.627 70.8041 158.144 70.8041H154.855L155.353 65.2733H161.814V67.0671H156.931L157.313 66.5024L156.998 69.7079L156.832 69.5252C157.097 69.4643 157.413 69.42 157.778 69.3923C158.144 69.3591 158.459 69.3425 158.725 69.3425C159.838 69.3425 160.724 69.6138 161.382 70.1564C162.047 70.6934 162.379 71.4629 162.379 72.465C162.379 73.1792 162.21 73.8269 161.872 74.4083C161.535 74.984 161.061 75.4408 160.452 75.7785C159.843 76.1162 159.129 76.2851 158.31 76.2851ZM164.804 76.0526L172.112 65.2733H174.089L166.798 76.0526H164.804ZM172.594 76.2353C172.195 76.2353 171.825 76.1439 171.481 75.9612C171.138 75.773 170.861 75.4934 170.651 75.1224C170.44 74.746 170.335 74.2754 170.335 73.7107C170.335 73.146 170.44 72.6782 170.651 72.3072C170.861 71.9308 171.138 71.6512 171.481 71.4685C171.825 71.2802 172.195 71.1861 172.594 71.1861C173.004 71.1861 173.383 71.2802 173.732 71.4685C174.081 71.6512 174.36 71.9308 174.571 72.3072C174.781 72.6782 174.886 73.146 174.886 73.7107C174.886 74.2754 174.781 74.746 174.571 75.1224C174.36 75.4934 174.081 75.773 173.732 75.9612C173.383 76.1439 173.004 76.2353 172.594 76.2353ZM172.594 74.973C172.838 74.973 173.034 74.8788 173.184 74.6906C173.333 74.5024 173.408 74.1757 173.408 73.7107C173.408 73.2512 173.333 72.9245 173.184 72.7308C173.034 72.5314 172.838 72.4318 172.594 72.4318C172.356 72.4318 172.162 72.5314 172.013 72.7308C171.869 72.9245 171.797 73.2512 171.797 73.7107C171.797 74.1757 171.869 74.5024 172.013 74.6906C172.162 74.8788 172.356 74.973 172.594 74.973ZM166.316 70.0899C165.917 70.0899 165.546 69.9986 165.203 69.8159C164.86 69.6276 164.583 69.3481 164.373 68.9771C164.162 68.6006 164.057 68.1301 164.057 67.5654C164.057 67.0062 164.162 66.5411 164.373 66.1702C164.583 65.7993 164.86 65.5224 165.203 65.3397C165.546 65.1515 165.917 65.0574 166.316 65.0574C166.726 65.0574 167.105 65.1515 167.454 65.3397C167.802 65.5224 168.082 65.7993 168.292 66.1702C168.503 66.5411 168.608 67.0062 168.608 67.5654C168.608 68.1301 168.503 68.6006 168.292 68.9771C168.082 69.3481 167.802 69.6276 167.454 69.8159C167.105 69.9986 166.726 70.0899 166.316 70.0899ZM166.316 68.8442C166.554 68.8442 166.748 68.7474 166.897 68.5536C167.052 68.3598 167.13 68.0304 167.13 67.5654C167.13 67.1058 167.052 66.782 166.897 66.5937C166.748 66.4 166.554 66.3031 166.316 66.3031C166.078 66.3031 165.884 66.4 165.735 66.5937C165.591 66.782 165.519 67.1058 165.519 67.5654C165.519 68.0304 165.591 68.3598 165.735 68.5536C165.884 68.7474 166.078 68.8442 166.316 68.8442Z" fill="white"/>
<path d="M12 120.5C12 123.814 9.31371 126.5 6 126.5C2.68629 126.5 0 123.814 0 120.5C0 117.186 2.68629 114.5 6 114.5C9.31371 114.5 12 117.186 12 120.5Z" fill="#6359E9"/>
<path d="M21.616 115.952H24.56C25.5733 115.952 26.4533 116.16 27.2 116.576C27.9467 116.987 28.5253 117.568 28.936 118.32C29.3467 119.072 29.552 119.957 29.552 120.976C29.552 121.984 29.3467 122.864 28.936 123.616C28.5253 124.368 27.9467 124.955 27.2 125.376C26.4533 125.792 25.5733 126 24.56 126H21.616V115.952ZM22.864 117.056V124.912H24.56C25.3173 124.912 25.968 124.741 26.512 124.4C27.0613 124.059 27.4827 123.592 27.776 123C28.0747 122.403 28.224 121.728 28.224 120.976C28.224 120.219 28.0747 119.547 27.776 118.96C27.4827 118.368 27.0613 117.904 26.512 117.568C25.968 117.227 25.3173 117.056 24.56 117.056H22.864ZM36.9145 126L36.7545 124.32V121.04C36.7545 120.352 36.6078 119.859 36.3145 119.56C36.0212 119.256 35.5812 119.104 34.9945 119.104C34.6638 119.104 34.3625 119.152 34.0905 119.248C33.8238 119.344 33.6105 119.493 33.4505 119.696C33.2958 119.893 33.2185 120.149 33.2185 120.464H31.8265C31.8265 119.909 31.9625 119.464 32.2345 119.128C32.5065 118.787 32.8798 118.541 33.3545 118.392C33.8345 118.237 34.3812 118.16 34.9945 118.16C35.5812 118.16 36.1012 118.259 36.5545 118.456C37.0078 118.653 37.3625 118.968 37.6185 119.4C37.8745 119.827 38.0025 120.384 38.0025 121.072V126H36.9145ZM34.3065 126.192C33.6772 126.192 33.1572 126.08 32.7465 125.856C32.3358 125.632 32.0292 125.341 31.8265 124.984C31.6238 124.627 31.5225 124.251 31.5225 123.856C31.5225 123.339 31.6505 122.917 31.9065 122.592C32.1678 122.267 32.5225 122.029 32.9705 121.88C33.4185 121.725 33.9225 121.648 34.4825 121.648C34.8825 121.648 35.2825 121.688 35.6825 121.768C36.0878 121.848 36.4825 121.957 36.8665 122.096V122.88C36.5465 122.752 36.1838 122.651 35.7785 122.576C35.3785 122.501 35.0105 122.464 34.6745 122.464C34.1625 122.464 33.7305 122.571 33.3785 122.784C33.0265 122.992 32.8505 123.349 32.8505 123.856C32.8505 124.229 32.9838 124.549 33.2505 124.816C33.5225 125.083 33.9545 125.216 34.5465 125.216C34.9625 125.216 35.3358 125.12 35.6665 124.928C36.0025 124.731 36.2665 124.485 36.4585 124.192C36.6558 123.899 36.7545 123.605 36.7545 123.312H37.0585C37.0585 123.824 36.9465 124.299 36.7225 124.736C36.5038 125.173 36.1892 125.525 35.7785 125.792C35.3678 126.059 34.8772 126.192 34.3065 126.192ZM41.695 116.544C41.439 116.544 41.2363 116.472 41.087 116.328C40.9377 116.179 40.863 115.984 40.863 115.744C40.863 115.509 40.9377 115.323 41.087 115.184C41.2363 115.045 41.439 114.976 41.695 114.976C41.951 114.976 42.1537 115.045 42.303 115.184C42.4523 115.323 42.527 115.509 42.527 115.744C42.527 115.984 42.4523 116.179 42.303 116.328C42.1537 116.472 41.951 116.544 41.695 116.544ZM41.071 126V118.336H42.319V126H41.071ZM45.7566 126V115.088H47.0046V126H45.7566ZM48.977 118.352H50.369L52.865 124.912H52.577L54.513 118.352H55.793L52.913 127.536C52.673 128.304 52.353 128.896 51.953 129.312C51.553 129.728 51.041 129.936 50.417 129.936C50.081 129.936 49.761 129.888 49.457 129.792C49.1583 129.696 48.849 129.557 48.529 129.376V128.224C48.8117 128.448 49.0837 128.608 49.345 128.704C49.6117 128.8 49.889 128.848 50.177 128.848C50.497 128.848 50.7637 128.747 50.977 128.544C51.1957 128.341 51.377 128.08 51.521 127.76C51.665 127.445 51.7877 127.115 51.889 126.768L52.113 126L48.977 118.352ZM64.963 126.192C64.403 126.192 63.915 126.064 63.499 125.808C63.0883 125.552 62.771 125.179 62.547 124.688C62.323 124.192 62.211 123.589 62.211 122.88H62.739C62.739 123.355 62.8377 123.755 63.035 124.08C63.2323 124.405 63.4883 124.653 63.803 124.824C64.123 124.989 64.4617 125.072 64.819 125.072C65.203 125.072 65.571 124.963 65.923 124.744C66.275 124.52 66.563 124.192 66.787 123.76C67.011 123.328 67.123 122.795 67.123 122.16C67.123 121.552 67.019 121.032 66.811 120.6C66.6083 120.168 66.3337 119.837 65.987 119.608C65.6403 119.379 65.2563 119.264 64.835 119.264C64.4723 119.264 64.131 119.352 63.811 119.528C63.491 119.704 63.2323 119.963 63.035 120.304C62.8377 120.64 62.739 121.056 62.739 121.552H62.211C62.211 120.811 62.3337 120.189 62.579 119.688C62.8243 119.181 63.1577 118.8 63.579 118.544C64.0003 118.288 64.4723 118.16 64.995 118.16C65.5923 118.16 66.1497 118.32 66.667 118.64C67.1843 118.96 67.603 119.419 67.923 120.016C68.243 120.613 68.403 121.328 68.403 122.16C68.403 123.003 68.2403 123.725 67.915 124.328C67.595 124.931 67.1737 125.392 66.651 125.712C66.1283 126.032 65.5657 126.192 64.963 126.192ZM61.491 129.76V118.352H62.531L62.739 120.144V129.76H61.491ZM75.5864 126L75.4264 124.32V121.04C75.4264 120.352 75.2797 119.859 74.9864 119.56C74.693 119.256 74.253 119.104 73.6664 119.104C73.3357 119.104 73.0344 119.152 72.7624 119.248C72.4957 119.344 72.2824 119.493 72.1224 119.696C71.9677 119.893 71.8904 120.149 71.8904 120.464H70.4984C70.4984 119.909 70.6344 119.464 70.9064 119.128C71.1784 118.787 71.5517 118.541 72.0264 118.392C72.5064 118.237 73.053 118.16 73.6664 118.16C74.253 118.16 74.773 118.259 75.2264 118.456C75.6797 118.653 76.0344 118.968 76.2904 119.4C76.5464 119.827 76.6744 120.384 76.6744 121.072V126H75.5864ZM72.9784 126.192C72.349 126.192 71.829 126.08 71.4184 125.856C71.0077 125.632 70.701 125.341 70.4984 124.984C70.2957 124.627 70.1944 124.251 70.1944 123.856C70.1944 123.339 70.3224 122.917 70.5784 122.592C70.8397 122.267 71.1944 122.029 71.6424 121.88C72.0904 121.725 72.5944 121.648 73.1544 121.648C73.5544 121.648 73.9544 121.688 74.3544 121.768C74.7597 121.848 75.1544 121.957 75.5384 122.096V122.88C75.2184 122.752 74.8557 122.651 74.4504 122.576C74.0504 122.501 73.6824 122.464 73.3464 122.464C72.8344 122.464 72.4024 122.571 72.0504 122.784C71.6984 122.992 71.5224 123.349 71.5224 123.856C71.5224 124.229 71.6557 124.549 71.9224 124.816C72.1944 125.083 72.6264 125.216 73.2184 125.216C73.6344 125.216 74.0077 125.12 74.3384 124.928C74.6744 124.731 74.9384 124.485 75.1304 124.192C75.3277 123.899 75.4264 123.605 75.4264 123.312H75.7304C75.7304 123.824 75.6184 124.299 75.3944 124.736C75.1757 125.173 74.861 125.525 74.4504 125.792C74.0397 126.059 73.549 126.192 72.9784 126.192ZM78.3989 118.352H79.7909L82.2869 124.912H81.9989L83.9349 118.352H85.2149L82.3349 127.536C82.0949 128.304 81.7749 128.896 81.3749 129.312C80.9749 129.728 80.4629 129.936 79.8389 129.936C79.5029 129.936 79.1829 129.888 78.8789 129.792C78.5802 129.696 78.2709 129.557 77.9509 129.376V128.224C78.2335 128.448 78.5055 128.608 78.7669 128.704C79.0335 128.8 79.3109 128.848 79.5989 128.848C79.9189 128.848 80.1855 128.747 80.3989 128.544C80.6175 128.341 80.7989 128.08 80.9429 127.76C81.0869 127.445 81.2095 127.115 81.3109 126.768L81.5349 126L78.3989 118.352ZM97.868 126V121.504C97.868 120.773 97.692 120.219 97.34 119.84C96.9933 119.456 96.524 119.264 95.932 119.264C95.2387 119.264 94.708 119.533 94.34 120.072C93.972 120.605 93.788 121.344 93.788 122.288H93.212C93.212 121.6 93.2787 120.997 93.412 120.48C93.5507 119.963 93.7507 119.533 94.012 119.192C94.2733 118.845 94.5907 118.587 94.964 118.416C95.3373 118.245 95.7613 118.16 96.236 118.16C96.8387 118.16 97.3533 118.296 97.78 118.568C98.212 118.835 98.5427 119.219 98.772 119.72C99.0013 120.221 99.116 120.816 99.116 121.504V126H97.868ZM87.116 126V118.352H88.188L88.332 119.888C88.572 119.333 88.908 118.907 89.34 118.608C89.7773 118.309 90.3 118.16 90.908 118.16C91.5107 118.16 92.0253 118.296 92.452 118.568C92.884 118.835 93.2147 119.219 93.444 119.72C93.6733 120.221 93.788 120.816 93.788 121.504V126H92.556V121.504C92.556 120.773 92.38 120.219 92.028 119.84C91.6813 119.456 91.2067 119.264 90.604 119.264C90.1453 119.264 89.748 119.389 89.412 119.64C89.076 119.891 88.8173 120.251 88.636 120.72C88.4547 121.184 88.364 121.739 88.364 122.384V126H87.116ZM104.741 126.192C104.079 126.192 103.487 126.024 102.965 125.688C102.447 125.347 102.037 124.875 101.733 124.272C101.434 123.669 101.285 122.976 101.285 122.192C101.285 121.355 101.434 120.635 101.733 120.032C102.031 119.429 102.439 118.968 102.957 118.648C103.479 118.323 104.074 118.16 104.741 118.16C105.322 118.16 105.818 118.277 106.229 118.512C106.639 118.747 106.97 119.064 107.221 119.464C107.471 119.864 107.645 120.317 107.741 120.824C107.842 121.325 107.871 121.845 107.829 122.384H102.293V121.616H107.005L106.637 121.856C106.653 121.541 106.634 121.227 106.581 120.912C106.533 120.597 106.439 120.309 106.301 120.048C106.162 119.781 105.967 119.568 105.717 119.408C105.466 119.248 105.146 119.168 104.757 119.168C104.266 119.168 103.855 119.293 103.525 119.544C103.194 119.795 102.946 120.125 102.781 120.536C102.615 120.941 102.533 121.381 102.533 121.856V122.368C102.533 122.901 102.613 123.379 102.773 123.8C102.938 124.221 103.183 124.555 103.509 124.8C103.834 125.045 104.245 125.168 104.741 125.168C105.237 125.168 105.645 125.048 105.965 124.808C106.285 124.568 106.479 124.213 106.549 123.744H107.845C107.765 124.251 107.583 124.688 107.301 125.056C107.018 125.419 106.658 125.699 106.221 125.896C105.783 126.093 105.29 126.192 104.741 126.192ZM115.744 126V121.504C115.744 120.773 115.568 120.219 115.216 119.84C114.869 119.456 114.394 119.264 113.792 119.264C113.333 119.264 112.936 119.389 112.6 119.64C112.264 119.891 112.005 120.251 111.824 120.72C111.642 121.184 111.552 121.739 111.552 122.384H111.072C111.072 121.493 111.189 120.733 111.424 120.104C111.658 119.475 112 118.995 112.448 118.664C112.901 118.328 113.45 118.16 114.096 118.16C114.698 118.16 115.213 118.296 115.64 118.568C116.072 118.835 116.402 119.219 116.632 119.72C116.861 120.221 116.976 120.816 116.976 121.504V126H115.744ZM110.304 126V118.352H111.376L111.552 120.112V126H110.304ZM122.312 126.192C121.896 126.192 121.522 126.112 121.192 125.952C120.861 125.792 120.6 125.552 120.408 125.232C120.216 124.912 120.12 124.512 120.12 124.032V116.224H121.352V124C121.352 124.789 121.72 125.184 122.456 125.184C122.674 125.184 122.885 125.16 123.088 125.112C123.296 125.064 123.528 124.992 123.784 124.896L123.96 125.792C123.688 125.909 123.416 126.005 123.144 126.08C122.877 126.155 122.6 126.192 122.312 126.192ZM118.888 119.216V118.352H123.768V119.216H118.888Z" fill="white"/>
<path d="M50.7125 157.234C49.9445 157.234 49.2545 157.099 48.6425 156.829C48.0305 156.553 47.5445 156.154 47.1845 155.632C46.8245 155.104 46.6385 154.462 46.6265 153.706H48.3545C48.3545 154.354 48.5795 154.843 49.0295 155.173C49.4855 155.497 50.0465 155.659 50.7125 155.659C51.4565 155.659 52.0505 155.428 52.4945 154.966C52.9385 154.498 53.1605 153.925 53.1605 153.247C53.1605 151.903 52.2815 151.231 50.5235 151.231H47.2655L47.7785 145.534H54.3575V147.1H49.1555L49.4975 146.56L49.1375 150.295L48.9575 150.124C49.2455 150.058 49.5785 150.01 49.9565 149.98C50.3345 149.95 50.6675 149.935 50.9555 149.935C52.1675 149.935 53.1305 150.217 53.8445 150.781C54.5645 151.339 54.9245 152.161 54.9245 153.247C54.9245 153.997 54.7505 154.675 54.4025 155.281C54.0605 155.881 53.5745 156.358 52.9445 156.712C52.3145 157.06 51.5705 157.234 50.7125 157.234ZM61.0133 157.234C60.2453 157.234 59.5553 157.099 58.9433 156.829C58.3313 156.553 57.8453 156.154 57.4853 155.632C57.1253 155.104 56.9393 154.462 56.9273 153.706H58.6553C58.6553 154.354 58.8803 154.843 59.3303 155.173C59.7863 155.497 60.3473 155.659 61.0133 155.659C61.7573 155.659 62.3513 155.428 62.7953 154.966C63.2393 154.498 63.4613 153.925 63.4613 153.247C63.4613 151.903 62.5823 151.231 60.8243 151.231H57.5663L58.0793 145.534H64.6583V147.1H59.4563L59.7983 146.56L59.4383 150.295L59.2583 150.124C59.5463 150.058 59.8793 150.01 60.2573 149.98C60.6353 149.95 60.9683 149.935 61.2563 149.935C62.4683 149.935 63.4313 150.217 64.1453 150.781C64.8653 151.339 65.2253 152.161 65.2253 153.247C65.2253 153.997 65.0513 154.675 64.7033 155.281C64.3613 155.881 63.8753 156.358 63.2453 156.712C62.6153 157.06 61.8713 157.234 61.0133 157.234ZM68.0831 157L75.8231 145.534H77.5781L69.8381 157H68.0831ZM76.0931 157.189C75.6791 157.189 75.2921 157.09 74.9321 156.892C74.5781 156.694 74.2901 156.4 74.0681 156.01C73.8461 155.614 73.7351 155.122 73.7351 154.534C73.7351 153.946 73.8461 153.457 74.0681 153.067C74.2901 152.677 74.5781 152.383 74.9321 152.185C75.2921 151.987 75.6791 151.888 76.0931 151.888C76.5191 151.888 76.9121 151.987 77.2721 152.185C77.6381 152.383 77.9291 152.677 78.1451 153.067C78.3671 153.457 78.4781 153.946 78.4781 154.534C78.4781 155.122 78.3671 155.614 78.1451 156.01C77.9291 156.4 77.6381 156.694 77.2721 156.892C76.9121 157.09 76.5191 157.189 76.0931 157.189ZM76.0931 156.046C76.4051 156.046 76.6571 155.929 76.8491 155.695C77.0471 155.461 77.1461 155.074 77.1461 154.534C77.1461 154.006 77.0471 153.622 76.8491 153.382C76.6571 153.136 76.4051 153.013 76.0931 153.013C75.7811 153.013 75.5291 153.136 75.3371 153.382C75.1451 153.622 75.0491 154.006 75.0491 154.534C75.0491 155.074 75.1451 155.461 75.3371 155.695C75.5291 155.929 75.7811 156.046 76.0931 156.046ZM69.5771 150.601C69.1631 150.601 68.7761 150.502 68.4161 150.304C68.0621 150.106 67.7741 149.812 67.5521 149.422C67.3301 149.026 67.2191 148.537 67.2191 147.955C67.2191 147.373 67.3301 146.887 67.5521 146.497C67.7741 146.107 68.0621 145.816 68.4161 145.624C68.7761 145.426 69.1631 145.327 69.5771 145.327C69.9971 145.327 70.3901 145.426 70.7561 145.624C71.1221 145.816 71.4131 146.107 71.6291 146.497C71.8511 146.887 71.9621 147.373 71.9621 147.955C71.9621 148.537 71.8511 149.026 71.6291 149.422C71.4131 149.812 71.1221 150.106 70.7561 150.304C70.3901 150.502 69.9971 150.601 69.5771 150.601ZM69.5771 149.476C69.8831 149.476 70.1321 149.356 70.3241 149.116C70.5221 148.876 70.6211 148.489 70.6211 147.955C70.6211 147.427 70.5221 147.043 70.3241 146.803C70.1321 146.557 69.8831 146.434 69.5771 146.434C69.2651 146.434 69.0131 146.557 68.8211 146.803C68.6291 147.043 68.5331 147.427 68.5331 147.955C68.5331 148.489 68.6291 148.876 68.8211 149.116C69.0131 149.356 69.2651 149.476 69.5771 149.476Z" fill="white"/>
<path d="M244.5 120.5C244.5 123.814 241.814 126.5 238.5 126.5C235.186 126.5 232.5 123.814 232.5 120.5C232.5 117.186 235.186 114.5 238.5 114.5C241.814 114.5 244.5 117.186 244.5 120.5Z" fill="#64CFF6"/>
<path d="M254.116 115.952H255.364V120.384H260.34V115.952H261.572V126H260.34V121.456H255.364V126H254.116V115.952ZM267.587 126.192C266.899 126.192 266.286 126.04 265.747 125.736C265.214 125.432 264.792 124.981 264.483 124.384C264.174 123.787 264.019 123.051 264.019 122.176C264.019 121.296 264.174 120.56 264.483 119.968C264.792 119.371 265.214 118.92 265.747 118.616C266.286 118.312 266.899 118.16 267.587 118.16C268.27 118.16 268.878 118.312 269.411 118.616C269.95 118.92 270.371 119.371 270.675 119.968C270.984 120.56 271.139 121.296 271.139 122.176C271.139 123.051 270.984 123.787 270.675 124.384C270.371 124.981 269.95 125.432 269.411 125.736C268.878 126.04 268.27 126.192 267.587 126.192ZM267.555 125.104C268.051 125.104 268.472 124.987 268.819 124.752C269.166 124.512 269.427 124.173 269.603 123.736C269.784 123.299 269.875 122.779 269.875 122.176C269.875 121.264 269.686 120.547 269.307 120.024C268.928 119.496 268.366 119.232 267.619 119.232C267.118 119.232 266.694 119.352 266.347 119.592C266.006 119.827 265.744 120.165 265.563 120.608C265.387 121.045 265.299 121.568 265.299 122.176C265.299 123.077 265.488 123.792 265.867 124.32C266.251 124.843 266.814 125.104 267.555 125.104ZM277.073 126.192C276.561 126.192 276.097 126.059 275.681 125.792C275.27 125.525 274.942 125.136 274.697 124.624C274.457 124.107 274.337 123.477 274.337 122.736H274.817C274.817 123.232 274.918 123.656 275.121 124.008C275.329 124.355 275.596 124.619 275.921 124.8C276.246 124.981 276.588 125.072 276.945 125.072C277.356 125.072 277.732 124.955 278.073 124.72C278.414 124.485 278.686 124.149 278.889 123.712C279.097 123.275 279.201 122.752 279.201 122.144C279.201 121.547 279.1 121.035 278.897 120.608C278.694 120.176 278.42 119.845 278.073 119.616C277.732 119.381 277.35 119.264 276.929 119.264C276.566 119.264 276.222 119.355 275.897 119.536C275.577 119.712 275.316 119.973 275.113 120.32C274.916 120.667 274.817 121.093 274.817 121.6H274.337C274.337 120.875 274.454 120.256 274.689 119.744C274.929 119.232 275.26 118.84 275.681 118.568C276.102 118.296 276.593 118.16 277.153 118.16C277.756 118.16 278.308 118.323 278.809 118.648C279.316 118.968 279.721 119.427 280.025 120.024C280.329 120.621 280.481 121.328 280.481 122.144C280.481 122.965 280.326 123.68 280.017 124.288C279.708 124.891 279.294 125.36 278.777 125.696C278.26 126.027 277.692 126.192 277.073 126.192ZM273.569 126V115.088H274.817V124.208L274.449 126H273.569ZM286.558 126.192C286.046 126.192 285.582 126.059 285.166 125.792C284.755 125.525 284.427 125.136 284.182 124.624C283.942 124.107 283.822 123.477 283.822 122.736H284.302C284.302 123.232 284.403 123.656 284.606 124.008C284.814 124.355 285.08 124.619 285.406 124.8C285.731 124.981 286.072 125.072 286.43 125.072C286.84 125.072 287.216 124.955 287.558 124.72C287.899 124.485 288.171 124.149 288.374 123.712C288.582 123.275 288.686 122.752 288.686 122.144C288.686 121.547 288.584 121.035 288.382 120.608C288.179 120.176 287.904 119.845 287.558 119.616C287.216 119.381 286.835 119.264 286.414 119.264C286.051 119.264 285.707 119.355 285.382 119.536C285.062 119.712 284.8 119.973 284.598 120.32C284.4 120.667 284.302 121.093 284.302 121.6H283.822C283.822 120.875 283.939 120.256 284.174 119.744C284.414 119.232 284.744 118.84 285.166 118.568C285.587 118.296 286.078 118.16 286.638 118.16C287.24 118.16 287.792 118.323 288.294 118.648C288.8 118.968 289.206 119.427 289.51 120.024C289.814 120.621 289.966 121.328 289.966 122.144C289.966 122.965 289.811 123.68 289.502 124.288C289.192 124.891 288.779 125.36 288.262 125.696C287.744 126.027 287.176 126.192 286.558 126.192ZM283.054 126V115.088H284.302V124.208L283.934 126H283.054ZM291.274 118.352H292.666L295.162 124.912H294.874L296.81 118.352H298.09L295.21 127.536C294.97 128.304 294.65 128.896 294.25 129.312C293.85 129.728 293.338 129.936 292.714 129.936C292.378 129.936 292.058 129.888 291.754 129.792C291.455 129.696 291.146 129.557 290.826 129.376V128.224C291.109 128.448 291.381 128.608 291.642 128.704C291.909 128.8 292.186 128.848 292.474 128.848C292.794 128.848 293.061 128.747 293.274 128.544C293.493 128.341 293.674 128.08 293.818 127.76C293.962 127.445 294.085 127.115 294.186 126.768L294.41 126L291.274 118.352Z" fill="white"/>
<path d="M249.135 157V155.191C249.135 154.537 249.237 153.988 249.441 153.544C249.645 153.094 249.942 152.719 250.332 152.419C250.722 152.119 251.196 151.861 251.754 151.645L254.058 150.745C254.61 150.523 255.021 150.241 255.291 149.899C255.561 149.557 255.696 149.134 255.696 148.63C255.696 148.108 255.513 147.676 255.147 147.334C254.781 146.992 254.262 146.821 253.59 146.821C252.936 146.821 252.393 146.971 251.961 147.271C251.535 147.565 251.292 148.006 251.232 148.594H249.333C249.363 147.88 249.561 147.28 249.927 146.794C250.293 146.308 250.788 145.942 251.412 145.696C252.036 145.45 252.753 145.327 253.563 145.327C254.319 145.327 254.997 145.471 255.597 145.759C256.197 146.047 256.671 146.446 257.019 146.956C257.373 147.466 257.55 148.054 257.55 148.72C257.55 149.314 257.442 149.833 257.226 150.277C257.01 150.715 256.692 151.096 256.272 151.42C255.852 151.744 255.342 152.026 254.742 152.266L252.402 153.193C251.874 153.397 251.481 153.637 251.223 153.913C250.971 154.183 250.845 154.537 250.845 154.975V155.425H257.46V157H249.135ZM264.144 157.234C263.226 157.234 262.419 157.015 261.723 156.577C261.033 156.139 260.496 155.479 260.112 154.597C259.728 153.715 259.536 152.605 259.536 151.267C259.536 149.935 259.728 148.828 260.112 147.946C260.496 147.064 261.033 146.407 261.723 145.975C262.419 145.543 263.226 145.327 264.144 145.327C265.056 145.327 265.857 145.543 266.547 145.975C267.237 146.407 267.774 147.064 268.158 147.946C268.548 148.828 268.743 149.935 268.743 151.267C268.743 152.605 268.548 153.715 268.158 154.597C267.774 155.479 267.237 156.139 266.547 156.577C265.857 157.015 265.056 157.234 264.144 157.234ZM264.144 155.659C265.056 155.659 265.755 155.281 266.241 154.525C266.733 153.763 266.979 152.677 266.979 151.267C266.979 149.863 266.733 148.78 266.241 148.018C265.755 147.256 265.056 146.875 264.144 146.875C263.232 146.875 262.53 147.256 262.038 148.018C261.552 148.78 261.309 149.863 261.309 151.267C261.309 152.677 261.552 153.763 262.038 154.525C262.53 155.281 263.232 155.659 264.144 155.659ZM271.593 157L279.333 145.534H281.088L273.348 157H271.593ZM279.603 157.189C279.189 157.189 278.802 157.09 278.442 156.892C278.088 156.694 277.8 156.4 277.578 156.01C277.356 155.614 277.245 155.122 277.245 154.534C277.245 153.946 277.356 153.457 277.578 153.067C277.8 152.677 278.088 152.383 278.442 152.185C278.802 151.987 279.189 151.888 279.603 151.888C280.029 151.888 280.422 151.987 280.782 152.185C281.148 152.383 281.439 152.677 281.655 153.067C281.877 153.457 281.988 153.946 281.988 154.534C281.988 155.122 281.877 155.614 281.655 156.01C281.439 156.4 281.148 156.694 280.782 156.892C280.422 157.09 280.029 157.189 279.603 157.189ZM279.603 156.046C279.915 156.046 280.167 155.929 280.359 155.695C280.557 155.461 280.656 155.074 280.656 154.534C280.656 154.006 280.557 153.622 280.359 153.382C280.167 153.136 279.915 153.013 279.603 153.013C279.291 153.013 279.039 153.136 278.847 153.382C278.655 153.622 278.559 154.006 278.559 154.534C278.559 155.074 278.655 155.461 278.847 155.695C279.039 155.929 279.291 156.046 279.603 156.046ZM273.087 150.601C272.673 150.601 272.286 150.502 271.926 150.304C271.572 150.106 271.284 149.812 271.062 149.422C270.84 149.026 270.729 148.537 270.729 147.955C270.729 147.373 270.84 146.887 271.062 146.497C271.284 146.107 271.572 145.816 271.926 145.624C272.286 145.426 272.673 145.327 273.087 145.327C273.507 145.327 273.9 145.426 274.266 145.624C274.632 145.816 274.923 146.107 275.139 146.497C275.361 146.887 275.472 147.373 275.472 147.955C275.472 148.537 275.361 149.026 275.139 149.422C274.923 149.812 274.632 150.106 274.266 150.304C273.9 150.502 273.507 150.601 273.087 150.601ZM273.087 149.476C273.393 149.476 273.642 149.356 273.834 149.116C274.032 148.876 274.131 148.489 274.131 147.955C274.131 147.427 274.032 147.043 273.834 146.803C273.642 146.557 273.393 146.434 273.087 146.434C272.775 146.434 272.523 146.557 272.331 146.803C272.139 147.043 272.043 147.427 272.043 147.955C272.043 148.489 272.139 148.876 272.331 149.116C272.523 149.356 272.775 149.476 273.087 149.476Z" fill="white"/>
</svg>
